<mxfile host="app.diagrams.net" modified="2024-03-13T10:25:13.198Z" agent="Mozilla/5.0 (Macintosh; Intel Mac OS X 10_15_7) AppleWebKit/605.1.15 (KHTML, like Gecko) Version/17.0 Safari/605.1.15" etag="hVLFLy_8xsbnoqtvcgxy" version="24.0.5" type="device">
  <diagram name="Page-1" id="jQIgAWduZq_4rhNZ7r8u">
    <mxGraphModel dx="2417" dy="1078" grid="1" gridSize="10" guides="1" tooltips="1" connect="1" arrows="1" fold="1" page="1" pageScale="1" pageWidth="827" pageHeight="1169" math="0" shadow="0">
      <root>
        <mxCell id="0" />
        <mxCell id="1" parent="0" />
        <mxCell id="6xExoOHHfjhJ3dI4_z3h-29" value="&lt;font style=&quot;font-size: 38px;&quot;&gt;SchÃ©matisation d&#39;un SP&lt;/font&gt;" style="text;html=1;align=center;verticalAlign=middle;resizable=0;points=[];autosize=1;strokeColor=none;fillColor=none;" parent="1" vertex="1">
          <mxGeometry x="-145" y="40" width="430" height="60" as="geometry" />
        </mxCell>
        <mxCell id="6xExoOHHfjhJ3dI4_z3h-30" value="" style="ellipse;shape=cloud;whiteSpace=wrap;html=1;strokeWidth=3;" parent="1" vertex="1">
          <mxGeometry x="-181.5" y="100" width="503" height="225" as="geometry" />
        </mxCell>
        <mxCell id="6xExoOHHfjhJ3dI4_z3h-31" value="" style="shape=image;verticalLabelPosition=bottom;labelBackgroundColor=default;verticalAlign=top;aspect=fixed;imageAspect=0;image=data:image/png,iVBORw0KGgoAAAANSUhEUgAAAe8AAABmCAYAAADiQRlpAAAAAXNSR0IArs4c6QAAIABJREFUeF7sXQd4VEXXfue2bWmk0TuREkCKBaUIKM0KiiAqIAgIAn72gthB+cCuoCJSVVQUsNBBpIM0KQGlSIeQUFK33TL/f+buYuQDSSAI6N7n0ZDN3d2ZM3PnPeU95zBErr+UAF+zRoVplsOxYxqyvTE4uL82ft+e4j90uIruy4/KPpBeBqbhTihV4jdXtQq70aDuCpSt+CscpXPYDU1/j4g3IoGIBP4+CXDO2ebNm6vk5OQke3NyYn7bubNKYb9d4pwX9t6/6z6LMfZ3fdf5+h7Giz4Hzop3Lc40hoLfd6Z7TyWnsx6vBaiqClVRc1NqpOyOjo4+Hhsbe7Ry5crpZ1qPS35jnGmCRf07T0vTIEllMlYsa7Nz3bp6Obt3V8ves6+u7/DhJMUfgGaYkE2TqQzQJAlupoAbOphs4ZjuR5ZT5ohJQImkiukVr2469fKnBrzCqlQ5XNRxRO6PSCAigcJLICcnJ3HYq8MeWrN2daMF8xe0srhV+DdH7oxI4AJJQGKS+Gbar/RvSZJQrVrK1uqXpWzr2//BD9u0aTOPMWaeangR8AbAt293YOvWlplr1tRb+M30h/P2707WvF4kut1wcQu6zwtwC6qsglsMpKAzJoOUYm6YYJYFlyQjCAu6U4EXEvK9Jlh8MvLiS2T3GPthS9bsmnUXaH9EvjYigX+sBMjSfuettx5+5NFH36RJ0gFIB6GmajBNE5YVAfF/7OL/QybGwcV+DepBMSOnw4lAIAB6vXmLFnPff//9R1JTU7ecPN1/LXhzzhXMmdPg54mTBuz+eU2H7P37o+IkhmRZhUsPwkEPvu4HPfokJFkGmCxBNwCDXpQYTA4oClneJjTOYMCEpangdJ/fBHN4cNySIV9Zf/2NH7xxPatb9/g/ZL9FphGRwAWXQNq6dbX6Dnzoo6XLljahwTg0BwLBgDj8/AG/GF/Ysrngg40MICKB00igoJdIVVTohi7AnIxE3TSENT558uTbOnXq9F3Bj/jXgTdP4xrmj799y+zv79u2bHEbj2RCz85GnNMJBAxoFqAjiGg4xE9NVuE3gzAKSE0DoEgSDMuCTsBOBwdTEOAG/PQL/d0EVPGvKOyOi+W3/zi1Pmtw9YbIDo5IICKBc5fAlvXrU1q0brMsIzMjKXzg/flgYyKWGLZmzv0bI58QkUDxS0CWZJiWKZRM2q+kfNJrhmUKzy5dtqeX4cMPP3zwgQce+CA8in8NePO0tPijy1fePHnwkPHldc6iso7CbfnhVDgswxDWNf1HjBUFKpgiw28EhVBJeJIMSGCwSBMKSY8A3SkDZigiQT/I8aE6AIcJWAbgh4YDCUnoMH1Cddb0hm3Fv/yRT4xI4N8lgZycnITKFSpuPZ6VlUSHWjheGD7s6DAMXRcdAe3ftVL/utmeFZ4yMOEiL+g6VzUNBuFSCMApBEQW+Pfff9/upptumk2SPasvu5SWhB/dHrP3o4l9f532Q6/stN9SYjmD5MtHnOKCwk1YZlAANj3uqkNCwLTIP46gbp4QDhnTqqRAZhxGCKlViQlAD+gcTglwh46JPE6Wu2115zEgKy4WVdrfPrbW2LG9GWORANyltHkiY70oJfDsM8+8Mnz4iMGGafvD6PALgzjp30NeeWVI+1tu+bJsiUoHeUzxspYvSoFEBnVCAuwiZOf/5ZhygJgYYG9WFteCmrLm1zWNhw0b9viyZcsahydFoVkC8rBCSpkUMTExR/6x4E0ktMz5sx6YMfrjQdbvv5csGzARz01IQV3Eqp2qgnzdgExmtCLBLzF4GUdQVqDLCjhThKajQoEZ8AuWuYNJUCwLMjfAuAXLMKEqtovcyQFyp1OkjcAbmgPpmoJf3Q48Nm9WFXb51bsiz1hEAhEJnJsEdqTtqJaSWm07fYoiK4KUJlyL4EhISMhcsXhli5TUlLRz+5bIuyMSuHAS4Jw7n3nmmUHDhg17TiinRIzmXLjVCcQHDRo0ZOjQoc/948Cb79rlxI+Lbp38+BNfRPt9TOU22JqBIBJiomDm5IkYNVeAALm5ZRleWcFxWFBLlUKF+g0WxFeq8gtzR2VpLg9yj+fG+o5kVMr+fU+57H27r7SOHpHVoB8ubsJJ8W5O5ncAcZBE3NvHg8iHCq/Lg91uDT0++7Cd2vY24eaIXBEJRCRwbhIY2H/gqPdHvtcvHCskh5csy6hZs+amefPmXV+6dOnMc/uGyLsjErg4JDBkyJBBgwcPHlrQ8lZlBdHR0VmrVv98xT8KvPmiefVXvv/h0F+nf9euss6RAAmmBBgE4G4nsvLzhDtbdTlxRDFwXFKQcFnq79d37PSW2qjRAsTFHYXD4WM1auQWXD5BckOmhkC2C0cPJiJtQ5NfV/3ces+v267MOny4jJMz1XskA5rE4ImOwWGfH5UaNV553TOPP8RuaL764tgKkVFEJHDpS6DGZZdt/23btmrkKifPmKwqCAaDWLBgQZOWLVsuu/RnGJlBRAK2BDjnUrt27WbNnj27NQE4KanBQECEiaZ+PaXtPwK8+cGD7kMfjHx0zsi3X47z5rNkSYVK3jSdCyafW3XAr/sRJznglxQccCoINKyzvP2gQUNYmxtnnctm4Ws2VfUf3FWRW/7YoOFVs7PzUKZqtUy1eduF5/K5kfdGJBCRwJ8lkJaWllo7NXUzvRpmmJPlff/994/55JNPekfkFZHAP00CixYturZFixbLuGUXcQmTM3v37jPmkgdvvnJxrU8feuTLqD17aifk50PO8wm3OIX3ZQYwLkEChxsSfIqGfbKK2557pr88+JlR/7SFjswnIoF/sgS+mzatXfsOt8+kOZIlQvmwTJIwfvz4bt26dZv0T557ZG7/Tglwzl2VKlXauH/vvmrhfHCyvK+66urNlzR4Hxo25MnZr742rAKTGfx+cIpry5ogk/m5AYdDhWxwBOg/1YX90U7eedKEq9hNN635d26FyKwjErh0JfD111+3v7Njx2nh1BqKe1PhpBkzZjRp3bp1xGV+6S5tZOSnkQDnXL7lppu+njt3XntRMTBU9rd0qdI5lyR4861bE1a+/NKonTPndKrky4dHN5HFTcRoLiBoQIdOBHJQ1he51Y6DIS+xFDqO/egqduutkRh05FGJSOASlMA3X33VtWOnThNp6GEXIj3fO3fuvKxq1aqCgR65IhL4p0mgX9++H3/44Ye9aF7hKoIiPfJSmyhfsaLS0peGfOBd80tb9UgGPNDhhALK1rboPwY4qURpIACLKch3uLDboaLTG8O7uXr1irjWLrUFj4w3IoGQBCaOG9f1vh49J1JaWDjmLSsKNm7ceFmtWrUi4B3ZKf9ICfTt0/fjj0bb4E3pkX/UN7iEpstnzbpyVM9eq8p6Ayw2OwcloUGHV+ggFqi2OIchEUvPrjXuhYx0twcNenQfWXXkuwMuoalGhhqRQEQCJ0lg3JhxXXv26jExXImKDjKq/bxly5YIeEd2yz9WAr169hozYcL4+wm0w53HaLKXjOXNR4/v9OXjD39RIpDLogwLbssNkwch2SVRxMWYKjqI5Bh+uFUJmYqMPVHx6Dt/bkl2+eUZ/9jVjUwsIoF/gQQ++2xi13vv6TaRKkZKHMLLxsGQlpYWAe9/wfr/W6fYu3evMWM+HnN/eN+fwLtLQSD8u7nXTbzrzoWpjDMrP0dUMqNsN01xQTe8okqaYsnQYQnrW3O4cVz34mi0G1cPfPilikNeffFSmGdkjBEJRCRwegmcCrzBGTZviYB3ZN/8cyVwKvAO9+K4qGfNZ85s+cE93eZXCwRYlDcfFiw4FUW4yXVLhyoDhg4R96YJEYAHJQbd40agSsUdbb6Y0ojVrHn0op5kZHARCUQkcEYJRMD7jCKK3PAPlMAlCd584dIrvunba0bUoYPJUfleOMAgK3Z91zwzCI8mCf+Z7ufQyBJnmqCtZYMh0+NGq0cfeTLu5RdG/APXMzKliAT+dRKIgPe/bskjEwZwSYL3nCbNd+hrllZNMAxRcMXUqYeIU1RNk2ULQdOkBmCQJAZuMKiQwbgOn6cEtsbG8F4L5yaz6tWPRHZARAIRCVz6EjgdeG9K25ySmpq649KfYWQGEQn8rwQuOfDe2qPf2M2fTehRQfLBYXBkGYCbSqeZEhTI4MwUNcs5scslu+c2dQAzTB0ZWhSqP/zQ4BrDXx0a2QwRCUQk8M+QQAS8/xnrGJlF0SRwSYF39ofjuy146vEJSTlHIXEuCGnUO1syAc2yk9OJmMap8CkDgtyCJFp7KgiYCrLLV8i/eda3tVnNmruLJqbI3REJRCRwsUogAt4X68pExnU+JXDJgDdfs7HG+63abKmVd4wlGgEEFYj+27JJ7TchuoJZIlldg8+0G5QzcJjg8MpAXnQJVLn9zpG1xo6O5HWfzx0V+eyIBP5mCZwGvPmmtM2XRdzmf/NiRL7ub5PAJQHenHO2+OaOs7J/WtgmMZAF1bAAsqg5oBCAi3IsZHEDQfEvCbK4QRf/z3Yr2BwTgwfnzKrCLr96198m3cgXRSQQkcB5l0AEvM+7iCNfcBFK4JIA7yNjxnSd8/ATEyv5/XAzPwydgxLTmQBuG6ZNWKBun6YoLyOJJiQexQmf4cM+Daj22MOv13nt7ScuwjWIDCkigYgEzkECEfA+B+FF3nrJSuCiB2++fHmNMe07bKnpCzI597ho6+mSZVAnFdsxLsEEE6DNCc3FbwCzJDCqs6YA26IU3n3hwiqs/jWXXKybc65g/34V5coFGWM06QtyUW90BAIWq1zZf0EGcJovpe46WLu2BI4cqYD8QCzysuJyDx1OObh6Ze0ju3Zfc2DfnmpG0PbAcN2EKssipVBSFJiMw1I0OOOifQlly66rkFJtW7lqKb9qpRL3ILZEBhLj09Hshm0XUu7FIWuenu7B7oMVkZ0fjaOZHhw4VDV97+7qO9M2NdqxNa2xnpsNj6ZAkyh1w4BlWQiSMkwNfCQGpycK8aVLpZWrVHVz6aop26KTS+6VS5fZh6TkoyifsovVLHdB6yVc6Jj3jh07qv3222/Vfvnll4YkO0kQbSiIZ1+Mkanx54v2YOhv3Ol0IiYmOis5ufTvpUsn5kZHxx9PTU1NK461P9VnLP1padNNWzdVys/NrxgM+kPjBYJBA4xxRm1VqW7GX12cc05zpbGXLVtmT0JC8u6EhFgrObnMlooVKx4/X2M/18/NysoqceDA7jI5OTlxgYAlHTlyJCE9/UAVxiR/mTKldiUlJeXJsmQlJZU5XK1atYs6U+GiB+/FN94yK/+nhW1jvXnwhGLaXjMocrstSDCodjmjkoj2AyMxw7bIuYKgoiFTsVCxY/tJ9SZ90e1cF/58vp9CA8jM9ODg7orbflrYImP/wZrI8iaah7PiAnn5nqDG8xxxMXCVjM9QY2P2XH71VT86G1yzipUp4y3ucQmgPrwn+ejmLc12r1p/9fHf91Vj+d5kVVPzpRhPnhodlaPExmTWbtLkB0fHjvMYY/ZJdJ4vocjs2OE2Nq2+9rdV6xvrR45U8mYeKZlzKL3q0QMHqhheLzQmw2EEkUxhlNw8cQQ5qdIeHaIc0CRZZCAELft4IqVPV2QEZIagxEXYhYr5QHWBxcb54mvUWJ9Uu/byujfe/DVq1Nh0PuRdnGITQH14T/K2H5femHsgPTUvPSPJl3G0+rHd+8oGjx6Nd5omNEOHHPBBYxac4FAsC6ppQOGWUI4F8ZOeKfqFk4wkmBIVHJYQlFT4JRk+qqsQFQNPxQppcVWqpKW2vG5GcqMrf0CtWscZE1r033ZdyDzvqVOntn3ggQcmZWZmJhYAa7HH/upSFEkoSdZJGKmqMjRNO9a8ecslzZo1W92tW7fRpUuXziwOYXLOHYMHDRr86muvDQ7XgQ9/brgbm1AoQkHIv5oBqSPhKcoyg2ly0M969er9Ur/+5Wu7d79/fJMmTZYzxv5aCyiOif3FZ9C5unfv3ritWzdfPXPmrFsWLVp0zYYNm+r/sVZ/zIN0rvB6lCxZMr1WrVqbmzVrtpJ6wns8ngOlSpXKP8/DLdLHX9Tgzed93/yb9l0XVszPg0ZGJ6dSK3SRVU0NR+iQYZQlFgJs2w6nS+cMuS43DpaIw32TP6/Frrtua5Ek8zfdzLdvT8Lixe02zZnffOOP8+5j2dkszh0Df9CO3FPJV4n6okk0VxN6SFmB6gQSEw/e8fTjjyo9u39ZHMPly5fHY/2GOxZM+HzA4W2/1XUGgnCBw8EYZN2A3wgiIANc08AkDT5JQULdOutueOap+9lNrX8pjjGc/Bl83z4X1m5oZmzcfPkvC39qsXfDxrbM54VLlWEFfeRzEVkHnKwGbkKVZKgWh2ISYEuQ6D7LgC48NXYrWLo0xX5oxX/CXyNMJJG+QLWxLUmC3x9EtCsOXh04ZjHkxcXwVgP6PFWub4+RFxOI8yUrG2LjL6kHNm6+euOSRXccP7C/ZJQiw8jLh8Y5PNTLXjfBDR0OSQIBB6m+nFvCC0EhJiJ8OpkEmdvhp0DIdgzLiwCd1GNK37BIAZJlHAv4IbujoDsUZHMOw6nx2lc2nFO/zwMvsFs6/Hw+9sOpPvNCgff69etTrrrqqt90XReWNVmhwmsRDIo9+VdXGCTEWjAWAnJ+AhBVTROfoyiK9eabbw7o0qXLp0lJSbnnItPnBw9+dsSI14fQ54b7P4cbSBYcLpF8hfPgL0HRrqNBoF0QCMOv0at33XXX5P79+49q2rTp0nMZ99m+d+WSJU0+n/Jll1EjR/YzTco/si+HQ4Wu6ydkTWMWZwP/Q/5gElRVRSBATwJQo0aN7T179vygb9++E2NiYi6opyk8j4sWvPmuXc5v7793ddySDbXL6gaOwo8YTUFu0LDzuYV2GI5xE3GNXjFFihhZU5LDhd90HXUfGjCy7ptvX1QMcwKkwJr1zWeNGzdo17JljZN0g5WicEB+HjwWbSADFtwwhXorCr7aAA6OILNDBQrX4HdHIU33o/OIVwcmPtz//bPd5HzNwhq/fvnt/Us//+qxEvkBFpXvRwJTwIJ+KioLDRIc5OVgJnySBYPLQkV1upOw3zKxN9bN+8+fWZHVqbPvbMdQ8H18y7KKSNtV66cvv3po8+LlbT1eHfEmg9sfQDST4CErWfeDlHrK6Scljsrh0kFIvt6gQYqOA1xWRCe5gOmHpirQNBWGHoBCXeaCXFjj9B+dU/T42nvKJj5KovoP4IEGg0IxLAqZnONwlIbdGuMDRr99u6fj3dOLY75F/Qyh0OzYW/3XJQtvXTHlmycD+/Z54vQgPAE/4mUVLOCFEgJie7cAGhSReRGAeQKYITFImgqZ6iEEDViGIUCc6iLYR13YaLJEw4/wMU0/SW7id0WG1zBhKTJMRUZuIAhfbAxSOtwx9vJBgx5hKSk5RZ1fUe+/UODdq1evMePHj7+fwJeUoILWdggPTjuVMGBY4nn/820EnBSyoEuWZQHuhmHwtLS0OmfrTuecq8mJSQeOHD2SRJ9LoE3ucfpsAjL7NP3j+gPqTj0FGjN5CUhZoXmHlZGwRU4tWcOhge7du5OcHmKM+Yq6tmdz/9atWy8bOuTlFz/7bHKXk99PY9Z1KuZlA/aplA+aD8mfwh82oNuyod8ty+IjRox4tHfv3hPi4uIuaHjgogXv7DeHDJg/ZPh78cfyUIK0Wk1FVjAAUwGYJEPSZZEiRksgwxRHE10Byu+WAK8JHCtVCnd+/XUN1qTJb2ezCc7He4IjR/de+d3027cvW9EmWZGY0++HagShkjuTUtu4DSo0G9oytMdUDjhEDjuQQ6crB9zU4xRO+NQobIt18e6LvqnEUq/YW5Qx83XrKh787Kv+c8eNfyJWD0L15kI2dcRrGgXAxIHPVA7LNEmHEGMyZID+DB/J3oVMSDhaKhkNBw3oU/Ohxz4uyvf/6bDYvt2BZatv27f85zZLpk+7S83PckepDJw0ZD2IKEWBSg+Vzx9ac+I+2A8XyYwToJscOgnN5cQxS4bsdgsLM+jNh0eSoXATpt+PBKdTzE+xaO/Ylw3a5Lehn6Qo2d2p6DCiB5mmTOaIqWrI0TTsVoAOg58akPjYsyPPds5FfR9fuLBS+vyfeuxYvrTloU0bmyDrOGKZBLdE47Mb4OoBHS6HAj1gQJMVmCYpNxYUpiAADr/MoXhc8BGQc44ATc6kv0twMhkal+EwOTSKhYpOAfaxLqxDZomfYBZMw1YKyDtky4xBllTxDh9k5DldcNW/fH3LL99rxcqd3x4CFwq827RpM3vOnDltaB1dLpfYi34/KZW2T/kMxqtYfsHPKRARJ5ygfXey5UdWvd/vt+bOnduudevWc4u6dzZu3Fjlqiuu3BkIBv7U+5kydezVYwKcaOwC0KkxxF9cpJxYIbxXFVm8N0DcEhHCpL8xIQ9SPoifdNddd306evToh8+31frcc8+98uqrrw6yTAr00FHggM9Pc5bEWGiMtqJuy15U4SwAzvS80DmnqLZ17nA4hPUdlg3NhT6nYcOGa4cOHfpwq1atLohXgZbmogRvvnVrwszb2m1y791fOiqoQCK3JwyoGkOuzqFSh09dgczJ/WeDt1oAvAPkYtY0NLq3+1vaxx8/WtSNXtz38417SpjLfmwz+e23P/Tv2RNb1qkgKj8fmk7HqQUXuaJNQGIMQXroKYZEqi+zIBFwhMCbHqccQnYAsYZtIfnhwnanC60mvnN7TKcu0wozdr5lS8X1b498/ucp3/RI8gdZrG4gisISRgCSzMXDRmBFe5pin7aaAFFylgLsQROIAkOAM1haLLY5JNR+4sHXr3j+lSKz+fm8mfWPrt/S6uu33h8WneNjcboFD9fhtIKwTB84nWzCxU0ZBkRBZHYBHjo5NBV5FkeAgMXhEF6J+FKlMyvXqbsoqmzFPc4SsRkxnqjjqqIEyVuWsWVT9eXz5/X1HjroTjYlRAcNOLgp/DgEQMLYIc+GID8y4WqnkIzYb/RH3QZ7+meW04E9bid6Thzbkt18x8LCyP1s7uG/Zkb7Vs5ut2batz32/ryyrXL8GBK4BVcgiFjhHTBtpco+78EVwKdTwUEGpjnhN4GgzGA4ncih2HZsjK90SsqGMtWqrYtPSkgvkZiQLjudZJAj79Chiut/XtP2t1U/X1tK54gJBuE0SD6GqFwoCH6htpsybQbLEoqTymiBbPqoDNXmDUDGkWg3Etq3mdh44sT7zmcc/EKBd7t27WbPnTu3Tdj6pLOIeokLMm0o7B9uUXryT1EUksAjBNZiX4VkK15nMgzLFOBBIELfQZYyWeAbNmyoe/nll28uyn5KW5dWq3aD1DRZkkUZaRqn6AMtvssGbd0yxe+0vwuOJzyugj8Fr0iVwQ17/9Hv9D5NloQ3jOJ8Jv0MXQR+LVu2nDN//vy2RRl3Ye/du3dvmQcf6Dd2xqwZbUgRkWmvhpQLAm7DJLXSBm363bau7RvCClT4fhaO4Ye8B2ELnA7EsPzofdr/r82zTz/77PMvPf9qYcdZXPdRLL9Pn94fn9wS9Jy6ivGVK2stG/XRCx7dzxSuc7KJ6SAkoFUMu6AKXQFGrjbhz4NK35gfEHFKjTPuy0gvm752VROPbkISrBlAF6cnF+8XFrdw4ynQIUMhq8ryg/R+RQWO6gB3OpBco86K6KpV9vsUxfL7AkxWFA5NYbR5bfWWLntAYQtM2O8UQ1cYMw36TWam6pRyotyHmjz+8EssJaXQ5BEiD+V+NO7BxeMnPuo7fKiUiEP6A4iSgDgzAFPXyYCFxyFBCoTKuIIAktzkBJcWZBY8Ad40mtyQmh5NGwkM2eA4FJWAxu8M7554//0T/2pz8LQ0LXfq1P98+fqI4fG6CQ8dDnT4GiYYxYkZkZIscMsE9XYRBgR9oAm4QzLyMSBAuMkUeLkBWfZgr0dFk6GDHio/8Mn3CrM5OV+oYE5Wg3WjPnzp1yXL20abgMNrQDFMuGQVkqVD4kHhdaBVN8hFp9BmkeEzDOgOJzIlIJhYAq7Lqi6v3Oiq5anXNl/gqFVrJRQlgHLlAqcjygiX84Z1jRYPGTEif+2mhuVoK1g5whJ1OCSYQXLF24rUiYtxAej0ihbi+1O0PTcmAa5rG89uNvvbdoWZd1Hu4WvWJGbN/KHvgglfPcgzj5Z2BwLQzIAAUge3oJiWULBI6RD7V2XwG2RNA1IUcDiowCqRCGf5Mr+XTq2zqGrTpsvjr776e8TF5aBcOf10JENyr2LjxhI7J372+Kpxnz5R5lgOEoTt7hcENj00f/puOg4NQh+SixUmOtkkUtMp4xDnOBqXjPunfJ3KmjXaUpT5F+XeCwXerVvfMGfe3Pmtw65ipQCJixPJj7gEBOZUrpnAV1Vh6iRLssoZGAXGLfIcEfWWQVYVGMKFbVu/FJdWFfWEFRwG3KTEpMwdv++sFRMTU+j+DGHwDoM1yZeUAb9Oei0EKJGyYBv99rjEnqdz9hQ/5dD8bNAmyx2gOL0etD8v7J4We0NTBJOdvND/HT78sccff/Ktoqzvme6dPWN22/88NODdnTt3poTPc2FZhxQVer/T4YSfOBqh104m6IXlHZY9/S5wooBCJofWRECEmL/tXenU5a7P/jt8+FPly5c/cKaxFtffzwt4L7y1/ezDC5e0ibYC0CxdMFVpIzPOhPUSBm9JU5ATyIOfm3A5VLjIVUexXCbB8gfEAWXH2SgNjNiu9DsBFoQ1KoiwTIZPBGck4XK2+bCA7ACyDAmW5hKy0kNpGZJKKRBcEEGIjHD6i1wnJoyAAVVxI1txIiMhFi0G9nsi9cknXy/MAug/fNti9jsj3zGWraxTnrQ8vw8mmdeKB5YZgMJ1uBjgU22Go2rY7UsDdDg7PcilUxhEJPKLQjR2BTkGH1k81JucE3kNcMbEY7U/gJ4L59ZnjRufljTG1y2ruPj5lz84smRZu2TLAvMFxOFPGj3Jj1ulmqqzAAAgAElEQVRcHBTk7hKQaeq2y1gheXM4yJgIJeJZkgKLrDnxgGjY6VRw27j32kXd3nX2mWSjT/285cbp0/r8NmNmp5i8fFbCAhSdlAFVrIk/GIQk01FmQFElHPcb0BQNPgvwySpyVQV5Hjead+kyssoNzcfimmu2s7Mg8vANG5InN74+vbJPZ27TCz8R5mUO2ipxThXeAEmXQSKmICkQVIM3pMDQgUUAn6NFY6fmRN+8zP9JBTqTHE73dwLtjPlze8549+1hUdk5LC4oIcpicNMzZOkIWEGhXIZZ87SffZYJv0TWtYKgpuCIzHB52w5zU69v8ZajafN1rFq1jLMZz+FBz7+8bsR7z5XRA/DCK8I57igV+Xm67ZkhLwxZ+xTaIc+R2B+y4JzkcxM8xoUDLApd33zrdnb/vYXyCp3NOC8G8KY9IeLcIW4AnXn0QtgqLxg/JWAoGB8PWdT2/gq5mQUYKqpw14aIawLEbX4GQ/eePUd9MvaT/oWV18ngHSasOZwu4RYWABwizhX2M+k+eg89t+RtCLuUxc8Qc7sgE53iyw6HyleuWl2nXr16xZIK98VnX9x2b9d7pnHLZFTxg0JFQZM8RXaYS3gXCFMEd8gOERQEcJpDWBZ0n4hxhxXiAuDvCClRdDLRugQM8i/ZvAFal2opKdtnfjv7pqq1qm4vivzO9t5iB28++dMOX/d7fGpSTh5Ui2xiO25CghR2c+iIE9oagbMsQ3JqMInsIQ5LwE9pPRLgDgN9AeYE5XGfYJZb9mcyoq/JKmQRLNKFA1SkAFF8Q8QvQpYJaZMU3wgxScwQw+JUp65EC82BKJcKb76J41ElsCk2Gk99+3VNdsUVv/6VwPns2Vcteu3113duXNc0zu9FSZ9fpLiRGmFBQTals0lEEiKlIiAkFO2WYPgsODQZxwMmHGRVSjZpSOGGHZslT1SIjEcoSoenrsrIYC7Et2o959p33mh/qhxsyoP2vfNWv+/++9q7JXJzmccfgGXYShBp8pbJoBFoGzpUsrx5UBwQbnjI1kJuKAssSsTibWkSoOcalgBw03IAtVO3Xf/D1EbsL/I7+ZRp1383ZNgE3+87ypJip5p+RFOsLC8g4vnE6SRZuDUXvEFylwN+DpRwRiGfqSAmXPnrmi6rd9fto2Pvu+8vPQyFfSC2dO/x5baJn3UqwYNw0z4kdr0o/GOPxXYf2pQ2gm4RDSP3sQAsCVmqE3scbjywekVyUTwypxof37EheefEKQOWjJ44uER2DosN+KFxHarTAT+x64VtRhaavQq+0Fq4HAw+RcM+3YJUsZrZ6K57Xqx81z1jWGrl9MLK4bSKxMzvWn7a/p4FVXUTbjUIQzcEp8AmwNlXGLyFY4yolXSEcsClAMcYcDAmCXe/MeIu1v3eYsmIONVYL0bwpv3yQN++o6644oqVpmnGkLubgFwOMaVM0+RhlzjNKTc317l169aa69evb7Rly5ba5E2k+LQt1XD9SAjjRgAOgPlzFzRt0apFoWKuIfDeTA61giAlVHcCN3AMHz78MafT6acxUh63SF8tcBUMfRBgh9356enppVevXt1o3rx5N4hGUATmpGiE4sl01BKZlOLJdEx36dJ5+ueTv+xwrvtz2rRp7bt0vmtqIBhgTlVDUCdAtS/b9AEcmkMQ58iK9rg9yPfmC3m2adtmbtmy5fZWqlhhV2xMTBaN2ecPOtPT00scOnSo6sRPJ3YhYCZsss9JA5ReR2tICgF9hqZpJ9aIjMwKFSpuX712dfOkpKSD5zq3M72/2MF76tXXbHP8vCmlLCfed0AQXuyjhtuH4f8gJcUwZRicWK42aufCgKxKUAKWAK3w5g3HYgIh0z1GU+H16dAkcksBPm7AxRQoKgmUYIcOOts1xBQG8oAEQyQMcukEBZ2TQxL7M0xfsH8Kig6BJWm/Lg+2mQy1Hx4wos7wYU+e9qDbuiphw7jPn1n90YTHKtAR6/MiCgZKUCw1aCsUNFsv5cpCFr9bTEdclBM5ud4T8ZiYGCfycv0nlAzyNoSlQCOy7FblFOqEV2XY6yqBDkOGDox/qN//sM2JO7B2+Ktv/jrt+26kUMVzE4xzOGRmE7vIVWYQX0CFgSCczGZnU9U6kl4QCvJl0q45ogwCb1I2CDjs+LfudCPHEYMr+vR6pfSwIc+fEpQWL661atyYx7Z9PaNn6aApYrXEnvdDh0eV4aJSt+RR0YjVDXiDQTDFjRzLgLtkMvYfzYK7UuWMW5999j5cXW8pq1HjnNJlCo5xXru2K/yLljVK1oNCkXKSBRnac+FonQ3etIvJHWzBlMibRIewiuMOB3ZFe/DgwfSztrwplHF85rw+P341eWD21l8vq2hI8Ph9iBW7UkduqOiQk4rLmCZU8kKYOnzkjomJwqHsPMilSvlb9ew7Iu7OO0ayOnUOn+nBL+zfvZ+Nu2tG/6cml8/3AUauOHiF44cORbuUociNDz89pHGR/UOPqMYNHGMStrg9GPD1V9eydu1WFPZ7i3rfxQre07/9tt1tt912Rm9Uwfnu378/YezYsQ+88tLLQwkkCDjEGRgikVEqJAER7c9GV1+zZMWqFc0KI6+TwZveIwArGAi7zAms3YyxsyrClJ6e7tm1a1e9/v37v7tu3boGWojVTWctAbpBz7nwLNjpZYsXLmzatEXhFI9TzW/16tW1W7RosTE/L4+RJU2hPjEn8grSOUkaAxFMw68rKqpXr7G+T+8+Y1q2ajk3JibmQPny5U/JfqfQ0ZEjRxK///7766d8OaXb7DmzWhUkHxYMa9D6iPBDKP3u1ptv/WL699/2OFs5FmYthXJSnDFvPmVau4/79JuRku9lJYK6AGuyFAgWyJkWBu9wyglXZHCTwUGxcAGYgB+GSGVRFCbcuKTN205xu345LY+PyF2M4rT2NN1ibyvwCeKEgoBGsWKy3IOQLUrfoFFQjrgUoiWJDFcBpKKoywmKhv17+HXNAWQHgTzmQUZySXRfNCvpdD3AjbFjuo978olxpUyTkfvfys1FoupEftAvItfCkg4rIpIGQ3LAT6QRRYYezIVHIfcsh07eakkGMy1EC/IP1Wq3XZE22FswQ8qLQwYyVSc2uEvgyc0bollycl7BhTc+Hd1h9lvvjzJ/P1DKlZOPWLKIjAAUldKsyCtip/uIDU+FSkJuP5tLQGsBcFkSIQvSOp3EcBfakK3r5OlAnicW2fXqrW0/ZXKzk/OeKX/90MSJD80aNerZhDwfSyTina5DUh3w6n543FEIBvJhmjo8ZMlatvXtlpw4ajFkueJw2O3AnU8NHJBw5+2fscqVswq7sQt737txcTw1aCLamw+F3M5UHetEgMIQMiLwpoCOyK+nFDPJEERCZnIc93jAr2885+bvZp0VCYd/MqHD8lGjhx3buOkyl8LhJO5GUIel+6GFQJtCSRRGIFdgiDMHrgGZsoTj0bGo2/7OcfW69xnKGl+xs7DzLux9Ox77z9AdYyYPcmRnIEqWIWtAjs9EtNsJeOkB5DCYJZ7HP3godrli8lUEYkpgU4kYf6/vvqp1PnsKXKzg/d3333e45ZZbziqdcMGCBdfe16371/sP7C8twJvctSqlOlIOObU+ZsICXLtuXWqDBg3OyCc42W0ejumSsSMsaHCekZERk3zSOVLYvRK+jzx9L7744osvv/TS4PBr5PQkxY/OuzCQ33B9q3nzFsxrXdTPp/tJwbnxxht/3LhxY12KvZMX1+2wc+x1PXgi6Y2eFwLXa6+9Zumzzz33dOvWrZedzffNnDmz3TNPPT1k586dDQI+34mQx8kueApxUNijZ6/eo94f9X6hQxpnM6ZiBe9l/3ls7Jpx43tUIrITpUsoRHEiIgsdduRqDBEjhFFLFiiDQ9Gg+oh8Y+eXEklKVixhfamUsiBcmDYZgpyGongExVKIQGFywdImNq3ITXW4ccQAjioaZIcTjmAeNG7BEjmIdsnCcM4k+QKIoFXw+rPpZEE3/TBcHmRwNzo+P3hg7BMP/a9lu3hlrRUfv/vilm+/u7NCnhclKPVGFDhgUEwuiHQ5zIJfZlCio5DtDYBodZVr1NwSk1Bqv8YsvmvDmiY866gnjixiSDim64hXnHAYfoGTZKcSJ1SQgJgJHiII0cY84HKh3pPPvJzy/PMvFHh4lLTnB72wZuTIwWV9OrjPh0Q1Gn49T7hcSRP2635xGJM7wnYHU0zXZryTsiFc46pNXhO1TSz7dXoIKRSfT0Dvjsah2BLee36cU4HV/HMqkPfTyZ0nv/TcR9r+fbEVuYRo3YRmWsKrQuqR0xWLXF8uyNXlkDmC/pCyL2vIVzVkaE5cdlOHr+o9POBpdvXl56WRDB85ssv0F1/8PP5YFlRSIFQNXj0IpxwD3SSvUcAm4YQgnBRDgiudcstJVlBxwK2iy+SPi8w2p3j7ouFDJ+yZObdt6eO5KC0pCFr0feTtsCBLTmgOGfm+fMQpDgQM2jeA261in1cHi3dBqlZ9d6t+/R9TevSeejYP/5new5csqTK+Y8cdFY/lsWQAx/V8uDVZEEq8Pi/cIcc5eY9sD1Y45k2fLENRndhuBFDjwfvH1Rn5Uc8zfd+5/P3CgXerufPmzmsV7rNQMOZNj83UadM6dOjQ4azAm+SxaNGia9u0ar2M3OfhuG04tSvsGfrow9H9+/TtM+pM8jsZvOk8JPDXQkQueuYzMjKizxW8w+N4sO8DI8eNH/cgxb8pr5rc5mHrO6SMEI2vMNl0/zM1yq8fO3bs/XSuO0LKRzhPXZNVmyDIGOLiShx99NFHhz7z7DPFQpAbPGjQy6+9+upzYoeHKjUKxcHlFs8EXbROxLafPXPmjW1uvHHWmdblbP9erOC955NPun328isTYiQDgXwvuEzgTcVEiGRBxx4RzixoJlnAEnyaTcbgeX4kySricn3cGcxj8S4nfL48kSohmOXiuLczEUOObpsoAxPRDgYrYDcpyZUUZKoe5CSXxMG8PHhUig8RkNr7g1OucsgFTQtL7uM/gXfBX4WVLkN3OlGyft1lnUe82u5kdy0fM+auCQ8NnJzITMRzCZpXFyQ3t8uBfH9AEJ0MtwvpjGE/40huWPeX5p07jS1Zv9F8xMdnwu3Oh99v4eDBMguefGQK+2VjQ2fAQKwrGgG/DyonuA4R9gTHWILFBB1IEIICkoKDiQlG5znfVmaXN9ov5piWFrVj5Efv/PzZpJ6VAiaYPwceUm1kCQGqnCUyizhkRRNAHeSGSLfyW0EoLhW63wcPUyCblKLGxSbkKpEyJCi6BZ/JkedUkRMXh+iGVyy9adBzvdm1157gAAiy1eQvX/x+5Hv9y3ADCUS0C9oWLFU7I1qMFhWLo3nZcDtcyA74UMLthM/rR7QzBodMHds8Ku569aUBSbd0HMtO49Y62w1/QsFZsyZx0YN9VgR+XletpCLDqcjI9FOQQFBeBGDrku3IsHPBw81vbEUqT1GREx2DuGuvntPs41G3F6XaWnDUmO4z339vWO72TaXKUWA4J4ho4niQYkCePsWNPPIiEXlP9yKKFEEiT5JnQpWRUzoJcmrtue1ef6c7S00957j26WS5vff9n2wcO6FnGdNCDM1ZqI/kBZKgMacAa/uJpOf7jxSjIHEVZBl5TMOhmGjc9/m4RqzNTavOdc3+6v0XI3hTSGrKN1+fE3jTnJs3vW7JoiWLmoQBI1wNRcSqJQmPPvrYK8NfH37KkFVBmZ2KbS5IXFRRUJQKFjHuGMbYnzx4Z7tumZm7SycnVTogy4yFS6fSZ9G/nU4NAb/Of9u+LSUlJaVIHiNyl1955ZWbyOKmK0xEI4wIs/HF64C1LW173ZTUlGIhxoXl8OHIDx/s17+vqO1AxDVioFOsnUA7rBDJiorrmjWb99kXk28vLmXo5HUg8H7ggd6jPx49ppcoDBnCr3NKFTvbxeZPDn5m6Ztvv2oYeYgh95Bhs80p/YsgjJIY7PGF2L+MmkzYLG2fBBzWnLj67ntGlSwCA/Nsxsp/+y1x1YuvjNo37Zs7y3EdMpWXDFn/THIi0/KDR8cgU9eRWKN6xjWdO78SdeONM9jlp7cgswY//urS/775TFlLgi5iiVSjPZSTQ8UOBIPXJixRuUufxHBQk3Hbs089qT738ggB3IsX15rW/9F55s7tZeIJFE1DkJyoOhhZbbokI58xBBQNAVVDrsnhTkxClVrV58TGlzjsjnPnHtq3t1pWZkbJ7PSMy/RjeW6Lm5zS+chdz3UDroTEvMuaNJlVucl138X26/dZQfnxz764fezTT37tTt/PymsKXH4dKoUQiKzHJPjICxLKRxaEQkqRczpxzO+H7PLgCFOQ0OjqFde9OrgXa9TsjG7As1k7Iaeda2Ln/+ep7/PnL25a0m+zpkVBHI0cEQo0UyVnMDjThYcn7A62wzYydKbgiNOBHVEu/OeLrxqy65utK8xY+KpVlZe+8e6oX6d/27ayJkML5ovabaIgT9AmNNLOpoC+JDlEFoUmyGrZcHncyDYtHIt2o8PgF+5z/ec/EwrznWdzD7k9f3ns8Xe2jP64fyVdhxbwibEJxY9IlqLsLFEMyU9gryQplGFOilcCshwaDmtRaNHvwVcqnIYLcTZjO917LkbwJpNj8pdfdOjcufNZW9403++nTWt/a4cO08KkNWJTCwZ16CeVIP188uTujAkXyGmvtF9+Sa1drx4R1gTQhA2ZMKG3uC1vGsiVVzRYu2bNugbhODeBjEw514bN/F4wb27TFkUsctK0adMlS5YsaRJm4xPTm6xghWrvhwvLMIkfzswon5iYeF5St2Z8991t7TvcPp3WgVjodNF3F4yF05Mx6dNPu957772fFudeD3/WRQPefNWqhKk33JpZhtjQUQxH8/LhkmQR8ybwJjtYxH5D+eJCg2NUFYqaKgD5LgfWqwwPzllYmV1z/jqH8a3rK33T8b4V0bv2llK92Yh1K8j1B4V7v6TDiQw/xyFXFKKvqL/l8rvv+KBM69aTWNWq2WdavI/LlrLKZRxlcZTXrkbDp/tEfrdEnm3yTlgUiVVE+coSUhT28wCO1atyuPOMCVVYmSu8/PNx7b995LlJsVm5UbKVB1k34QgVV6GUJll1IpfJOKpIiL+y4ebkKy6fVavjHV8gJmEbalFtk1QR0+CcS9i/3yFYJYGAhqwsII50iZiQ3iQFTma002G/59HBL/4ycdzgmNxjMINkRQOWn/gIDlDuFXEOiNcgQgqh+ATlxFL6lyJ7sEdzoFr/nq/XHTRoCIuPP6O8ziTP0/2dr19RaXa3PrOs33+vEa0HwIKGUABFOUqCI8PuD0/kSVI1RCqcDEGIlCVNlAE1NQ8OeFy49b03bo+5t3DpT5SBMP/Rpz/ne3ZX1QL5wqsi4sRk2VOGWgi4RbGVUOoVrTl9J1cc2M8tRDW9ZmPrl56/mzVpUqyWxJ8UsN/WJP42YuywNV9+fX9y0Ae37oUzBMxk+Yd5EgTVfgociLxl8lgQ+1yGl1Ts6BhsM3TU6dpt3OUffdjn72haczGCNz28X3z1ZYeOHTueE3gvXry48fUtWi4VLm5VEzFvAt9wGlTL5i3nzf98QXtWhv1lg6KC4C2KmAgCpHEiF5oecM55dHFZ3rSvunXr+tmkiZPupuPELvFK4cs/mn8UlROwcOHCJq1vaLWExh1O9yLrl1zzBVLv+I8/LWzcvHnz80aQpLk9P3jwy68MGfIcsf/DBaTsMdgETvIUJ5cqefDQoUPVzkdZ2IsGvLe/9soLm15+48XyPh/8CCDKyRAIUoEACS5RpecP8D5heXMTWqiKyNEoDyr16/Z6jRGjilzhqyhAsGzEay/++tLrL6TkUV0zvzjN/B5iyFvI9XLo0Um455XXeqNV4+mnI7ed/H185syWY2/vuKAa43AHDeGaplKWNGNJ5dANDqYoEGnGJtWvcuCwS8HNb73SnfXtP9F8Z3ifSS8M/ahilhfxsETxG0mz2eh5BqC7NOQqGo5JMvoMf6MTmjX+8eQYdVFk8KfD/tfM6GVPDfxq79zZbauSlWbkg1Lrc3x2kRNqAkbeArekwrT8oDC7j7KtSAMnjzGXke2IR5snH3/S+cJTwoNwvi5jwpjuE58Z/E6ZzOzYUrIEXyAfChVl0S2RiUDiLeGQwOn3UBoiEejIMqfudNkMyJFVBKKjcNeLz3ZX+j9UqHQ1PmFC508GPDy5hmkxj5ecz7ZHhakSfLqFaOYQOdtZphceTRIpeKJuNLmfJRXHVDfKtGw57+phL3ctTib5/+zD76c1/2rwC5O0XQfLeXJ8iBIlwCi3m1NkRXiXSC6hKgBU9UKQ6AziMxDDl1M4QcEhVULdTndMqfvqa/cVJZxwLut+MYI3rfKMmTM73HjjjecE3vPnz2/a6oYbFoeLtYSDxOGYd+PGjZctWbq0NWNFA2+CGAF8ofAhxYnT09OLLeZN63nLTTdO/2HGzNvC8W4C7nAeO4W7Px79UdeevXsXyjKljoJ3de486auvvrpLPD+hpLBwTnaYE/D+e+/17z9w4Bk5AOey30KGjvOGFi2nL12yRJTHDeeTh4vvBMgjoCh8/Pjx3c6H9X1RgDdfs6bClB69Vybt3F063psjrLRw8QfGZQHe5Dgm01CnLjahWIdiMUhMgd8Cdsc4ce+iaZVZ/RbntV83/31LxQl39JibuHPfZWXz85FvZuOow4HDsR40e/DBV6p37fFGYSztghtnY6e7x+777rse8dwLB+VOh1zwgq3PFEjcTgsRZCnNgRyuIq5mza3XfPNZ/X1vvz1q1fiJPRO9XsSTm8LiyKYflN4FGf64OOyLcxodnnrqwfgW7SaylBQ7cbQYLr5gRYOvHhzwvbJvW5nSxMX2+lFCBnJN20KjAqvUfcqwdNGVjLgP9OWUw0+p4Rk+ICcpGXe98347dnenIqXTFGX4fNGi+quGjhi6e9nyttEBP0tQFXh9OXAKty+HW8jYsEE6RN6jMIPkBAJ+IAYqciUXtrkYoq5p8MsdQ166pzBufc7TtF8Hjx/688ixj5fzG5D92aJGvypY7aSgOeDlxJMgPrvgZov6/bkmMfLJPc1w1ONBhU6dxjUcPfa8Eb74mjU10oa+/vTWeXO6JXCTcW8O3MSJ0JlIvWQsAJ1Ip5Q1QV4IKoYYiug4FQWKJSHXMmBFJ2O/S0GNbne93vD118+rEn3y+l+s4P3Fl1+eu9v8++/b33bLrdPCxUDCbm+ZOl4FAxjQr/+Yd0e93+9MHo7TWd5h97vT5eJ79uw5Z7Z5wbWhGjWSxFi4+Uq40loYzBfMndukZSEZ4Nu3b69au1bqDtENLBxApeY7snzCXd6wQcN1a9atbViU8+Fc7s3Ozo6vXLHSb8ezjidSCp8oyBPmuocq0LVq1Wre3Llzb2H0IBXjdVGAd/D1dwZOe+7FdxMCeYhnus14VoA8YXAzUTTDzngl8Ca3YqiiGleFFXdc1dCw730jy7/37t/SOYy6ne17+4Mhy8aMfzTK6WCxV9Re0XRAn4fPpgUiX7iwxpRO924tn30MzPSJMqiUZ0xuSB0q8qEjwRGNnEAuJElGrmXhmOrg7f/737t3LVt147KZs7qW83mRJFnwUUlRKp5CpCam4ThTULFZ07nXPf/cA8UdSuBLV1f/un//H1y7d1Zz5xxFnF2G3U7pYw7R8EK0jhQtW4nZb4KIyuRW0pmEDMpTrVjZd9vQ124/H8BNeZr+GVObrJ06/b5dU+d0LRkwWaxFFfPyISt2dXKKZVMKXLizGLHpvaHWq7oK5AcBR1Q08v0MRzUnrux334iqgx4YyuLPHAYhK2HLkw8NWzFm3GNVAzJcXi9UkYNnwKM5kEfsYbLqmdOujEZpg6JRiA6J2mvKHNmaEzc82O/5+KEjXjvTwXw2Z4IxZUq7HfMWdlw5/tMelTUHc/u94IZX5PQzWQEztVALXrs5KGWC0CUoGYqC/KApMiEkhxt5mhNqSkpam8ceeYjd3enHsxnPubznYgRvkuFXX085Z8Jaas1a67Zs3XKi/7TH6YLP7xPPFhG0Bg169tmXXnnpjLW1TwbvgpY3WY2iO24xEtZmfPtt25tvu21WGKjDP8NlU6lc6d79+8oWtqDJxx9/fG+f3r0nFSxrWrAnOVniCxf91Pi6665bfi57qajvHTly5IP/GfjQSFFSmsIaxIGiKnlEEDZNuN1uvnPnzpLF1ZM9PL6LArwnxCVZFfK8zOmwYPh8iHdIyPURC5IYdEx01BKHhsixDcUEyRY3FBieWBwsEeu7+5uxqezq685LStHpFpMvX14j/9ixilE33zynqAsevn9h59u/MGb92NmdkyVywUVesYgtkiVGddupIApVPqNGJdShR0L1KxttDjA147e07S2MPC+LZl7ICNruaI+G49yNg24POr/5ep+Ybl3OusvXaee9aFHND269Pa28ZDAXscZ1wB2qc0MWK1Xc1hxusGAe8rgBBxVrMKhGu4yAxaArHhyJi0WX0e81Z7ffuuhsZXeq9xGZELNn3zTzozHD8g8dLBWlG1DzvIhRnDAMn6gz7TX9cGoOMCoY43Ah3wgK7Z26jJGrn/qV5wv3h0fU5i5zffM5Nzzz5POsWbNC9aemoitb33//zbTJE/uXDOhgviCckOF0unDUnyfSGokLYJhB8ZCLdDzhjlaolRG8hoEjUW40f+bpJ0s/U7yhBL51a6X8Gd9dN2/c2OHB/QeTXb4AYqiTlN8PB3kAxD4jK5v2nwxFVkH+EjqESLkhDwF5dMhP4XM6cdQpITPGgQ6P9O+d+HDHSYwVn2enKPviYgRvck5M+frrc4p5Dx82bNCzzw4eKmK6VHtfc0APVV0jRjORpH74bkb7m2696dszyetU4E1xY2pGIuLH3OKHDx8uFst7w4YNtTvdecf0bdt2VKVxhVuHFmy/KULs4RjomQYP4KZ2N6eyv7YAACAASURBVM6dPXt2KyoIQeMVmEC12ENFa25r33769OnTz7lqWyGG8qdbMjMzy5QpU2afoZNpGapWJ1j8drMXWrvJkyd369Kly6SifvZf3X/Bwds37oP7ZvR9fFwliyNX9wqXqpNyiilNRjAHyd36B3gT25U0f1Fihblw2OnCNYMee6rkoEHDi1Mwf8dn8R++bTGxZ88fK+fmweMTTZ1EIRoiS9GjSvm+NE+n042gPx8uTRbWDrFSHIIIRrqm3QpVdUs4HjBwTFHhqlH/9xtfGNKT3d66WIGRZMJXLKr5Q8++C9Vde0q6LK+9VnZHSdFEhCtO5Ojk5qdYLofTQdWgqJ6HAT9XYcbGYbcO9Jw47jp2x02Lz1XOonzj3k1x2Lzj6kWff/6f7Qt+ui4hx+eKDVBeuY5oWUXQpMx6BbLDAR+VoyUOhUVlV6goDPVHp3x2GTFRcUjPzQZLjEcWt3DFNdfNqd3j3v+yO24rUsewNT26T9j2zdRuFQJ+uAK62Mu5ul20KC46Bnm5OYK0w8iDxDhCVYHBZCe8ioojKkOjHj3er/LeOwPPWT7UZtUZ9GQvXdNq6eQveqSvXds8wet3xPiDcBvUatWEyykjGKQuUyoCxFsgWYlwB7VZpRruRC+XIGlUdMhCri7D9EQjqVaN9SnXX/t5qZ7d3ivOcMzZzPliBe+zjXnv3r279LNPP/PG51/Y/ajDXb8IrKJc7lAtcgFe3OJcK4xn5mTwPuGGD7HWQ5Z31Jli52dan6lTp97Wu3fvsfl5OfEBUl5DBNWT+3+/+857j/YfOLBQ+dcZGRml6qTWXpeRmVGazki6RIdBqvseql0+YdLE88bsPtOc+/btO/KjDz98MNz8xEXekYD/BImua9eun0+aNOmeM31OUf5+QcGbb9/uWNS3z4/+lWuujfH5hPuSCqe4NQ9ygzkif+6P8qWUrmS3IyR3J6WNZXHgeFIZdE6bG82SU4slN7EowjvXe3/peM+Xe7//rlNUIBeJTid8VNiGisWqGvx6AKqo105NQSgaals+sgvIFX20bcKG202FX3JhaQz5sgJerUbGjRMnXs3q1y/22D/fvj1mRtfuq621ay8rR6VRqbe6BSTIKvymiXxQbXYPgkG/aLlHTTSoDo5IM4KM45oTv8JC3wlju7Fz0EKp5Ct+XtfEd3D3ZdtW/dxw8/Llnc2s44hjCmKYBBdVcQoERKWlaFWFZjH4TFKF7PKmHpVy30L9v0kzVhw4EtQRcETjiMuBxj3vfb1269aT0bLlBsbC+XqFW+0jb/93wPdPPfteiqJCyfeJeDp1XqNezHkB6o9td2lyq0AOeSwUKiNKrF8ZPqjI8DhQ8e7bJtYb3b8XY1f8dUPl0wyJL1pUE7+su8J76HClTctXNd62eUMbye9HnKLATS1BAwHRvY2LjlUMAYPDobAT/bkpp50SM8m2sWuoAbrDgQMcOKiqqNS6zZYbunZ7zNOw3qq/qmVfOIkVz12nA+9NaZtTUlNTdxTPt/zvp7RuffoiLVT7fur0aYUuj5qTk5O4fPnyxvPmzUudMmXKgH1795YmSztc3zxcFCRseZLF3Ldv3zEffPhh78LM71SWN4ENKWyihKjdlITKo56yZOjpvoMyVJYsWXLNli1bLl+2bNm1BFKifocojGW/S5TVpf4WdsVS8XP9L7/ULmxzkgULFrRr16btTPI0hFPlwuOhCnGUZ33w0KHk4nZNF0audA9VYLvppptmkgePm1QYjFxpf/QzT01N/WXp0qU3FGcv8wsL3p+M7jD98aenRuXkIoYIPCKf2S5XamcE2yzzgs06w1XQfLKCY84YtH1+8EDtqUf/p/JZYYV+oe7L+WZyh9m9Bk5NPp4FF1mngSAcwqFK6TZ+0bCFNgGlyymWAY1RRTq7GhqlLbk1CXrQrjHOo5w4YOhIbdV6bp13R3Y+H2VEqY3myv88MXX/zBltyxp+OAxdtF4N6pRWRSqHQ+SeBy1yEZNVS2tptxd0UH10qEiPcuPG55/pzZ58fExh5M737CmBA7srGcdy4zJ//73Oytmzu+xZv76R2+9HLFn6/nwkOZyQ83xQLQueUCUyQQEjFi01qDGotj4Zjip8jMOgMrT/X9giJxCA36HAcDiQbzJ+891dRyVf22QeKtw9g7UIdWIpzCAL3JP98SfdPnvssfF1JcZY1nHhhhZdmiSGfKrgptk+QiMIOClEotI4LLiFG1pFUIuGs2GtJQ1WLDpjrWqR0rdxY0Xk6Mm+fbvL/bJ02Q2bli/t7Es/UCLG8CPOMKHl+RGvaqIFpWn44FI1wCCFisMZMocoFEOpiFQal7gkErliTS7q6hsKhakkmIrKS6WmLr/yjjs+R4vGM1n985eKWUSRn7j9YgRvelbDMdlwj++CRKvTda8KV+sKs8vD1tzJFnitmrV2zJoz+7oKFSoUqgnGyeBNz0G47neYtEaAQ8VPwq1B/9zx4eQOEML8FVUk6X5C6PD9otuWSvncNrPRLo0a6qFtcrz15uuPPvzo44Wyuun9kyZNat+9a7dp9A2nylPv3rX7Z+Mmju92ujbAZ7uvCvu+vZmZZSomJ+8nQBUtYENhDjrH6d/ly5dPnzNnTrNatWoVW8exCwreS5petYyv3Xyt4vUimrmFhUIHvocOE4vcLTICokmGAlWoa3a3K+P/U54OqhqOVb0ss+u0r2oVNiWrsAtxvu8jwtuPD/Web85f0DjBz0W5V3AFmuUQYGcwPzixvywJHs2JYJBsWjvWT01JZPJiUuMHzYGDwQDy4kqgdqc7J1V/5JFHiisF7GQZ7Hh60MvrPxzzXMncHFBHMPvgCff5pWQwqkhmV/mh/uB2521qY0JqmBs5mgPlb7r+q6rPP/kA6tWjPG4Ja9dKcLkcOHKkNDIzq3jT0yv6jxwp5Tt8ONZ3NLN8+q+/Vz966FBdb34eNIm4D1yANHEgmBGAg2rfU0tURk0JSNu1G6pwcqVZBpgii0Y0CpUepSwFjweZlo7jMkO5hg1/SahTa1O1q679PKnZFatRtsaxgh2TiroH+PJ59T++ucvacse9LFFRwfWAaGFrE+PowLG71Ikc0FBvZBo7NYTRJQXHqExtQnJOq49GXo87bqWiLww//cQQHU3JsSVx8GBVfe/ey44c2Ff9+MEDCcGsnHKHdu5skHfkWHwgN1dUiHNRhz5qUyhc34CsWwKw6fsClNNOneiouinlrFP/dElBNuUOMxUB1YlsxpFLNdSdDiSmVP4dpRJ31Gx87byKN1wzBaVqZv5daV9FlT3df7GBN42JVl8N1/I2KWPGru2thwCN7pHDXbdEtbqQlSrc5HYJabLgyOIOl3cOt+wkMtQHH3zwYL9+/T4orLxOBm/ai8RDoTbFjEknmpQIY5lY3KTsci72raIpMKgfN4VPOERTJzujJNSamcJAFD4jhUXU4Q81ISlQQjSsyCQnJR/8bfu22nFxcccLO/ZPJ0y4t3v37pOEXGg8oe8g9jqB43+HvfbYY088/WZhP6+47yPWebu2raevWLGqqduhwRcMCoUlfNEarli1ss6VV165ubi++4KBd95XY9rOe+iJWSXSjyOa3L9KFPLIKoABl2SIUpDkslOFNRWEg0p2ijKrQJ7qwg6XA01efnFgpYcfvuSsbt/Id3t/+fTjo6sFgogKUilJ2pB/gDeHVxTwYFwRjVroIdFClGjK3TZ1ypFWkWsYCCYmI6lVyykNBw++l6XahVaK++ILFjcY27nLmvK5OaxEgBpRGvAoovaKuMi+pvQ9stzoQXeRF0W4XCn2TR3dYnDICKJa2xYL9Fh31q49v1+2e/fvdRxBLrrxkHUHw4SLGoRwC04zICx7D/GvdftLqFY8HWBU0jYc/7NLOtqFVIj9zBUFAYtqy1M6PBHPZPHZ9J/ldKLutY2/vLxtm6lISfkdlSptPlX71LOV3YxbblhnzltWv1yAQ6cYMXke6DSjQiyChW93uLPZ97YvURXd7Bi8RFmT3XBXqpBZtfE1czbu3VNx3+HDKdlHDpUiEKZaBopuQDH1EMfArhPPDANOSRItIslLQ4cYfZOkULUpasvJkKdTa1UJituBgGUIHokAAGoGRIoh9YeXVBw3LZStW2dn8w63ve2qk7oJpUptYQ0aZJ6tPP7u912M4K0qCoKhhyTct1DgomCJ24QrXayZ/VrB+4mYGgbAsAV+QqaMoVu3bmMmTJhQKHd5+H3/E/MWFrPd2lIUnw6lXYWLndiFUKjlL/W/tou6BHX7NUr9EpXSQiBNYBr+t6ByUAc0K5RH/v/g6nK5RCtO8kCsXrum0O7y8NjfGDHi0UFPP/UGjY3GQ5dQgkOu+Dde/2//Rx9/6rzndp9uXxOQ9nug9+hPxo7tRd4+e1H/6A1O4L1w0U9NmzZtWqj2rYV9fvr06fXx314edfYtbZbkzl/YpKQviChJBaO4pCBfkUuRFsgSObeSTK5k+2CKpdrYkoL9loWoJk22Xvf1F1eyUqXyCzvRi+E+sro/anCVt3rQx1z+PFEdzibgUTU5e65EQrNtWUm0fwxIHL6g3ROcgInyhLMg4bg7Fql3dhxXfexHD5ypNOLZzp025cTL6u1LOpRRNiaQB0nPI9QBNdZyh6iiVBRQkL4IvGn9qHa6yFoG3NEKcnMNYf3myrTGOlxuJ4I+P1QRZmMwqaIMxfpN27ImJ7Ii2Q1RiFRKWCgOvBChz2ZCk5QkmA4NVI6TeqRnUwnXGA/KV09ZX7Vh/eV6TFx6qeo1fo2tV3cNq1n8HICwTM23Xh846bEn3r1MUeAKddOjGYVdiOFedaK/S8iiIi8KKRjEZ3BbklB6jnETBhWxcTqgODQwkhFlGJBVZlFZXAaFFJjQ4SU4IqHvIWIjUR3tKuik0JAjXhFeCJ9lIUCxbU0BVVFAXAziq1bdWqpmrR+TLqu6pUzjZiuRmJh2oUlnZ7tH6X0XI3jTEe7QVLHHAwG701UY2ETes3Cr2339dF2kav2Bz6Kyn10GNXypmoZgMIj777//408++aRPUeV1ulQxw9BF1oU34BPgesLly+x2ygTY/9fedwBWUW1rrz31tPRCCAQiJICELkV6UbqAIE0QEJCiWAALXhWkKFcF7rMBKoZepHcpivRQpEMAkV7TIO3k9Jn5/7XnDEQuXAI5KejMfb6QnDkze39T1l7t+3DDsWr/1u47/Bu2RuEtiUYd93diLo2+u/86frxV9yXsb1S3Qd2HbuV6Y9gb06ZN/eZVbc6Io5dqgHq4ixct6ts9H3U0D4vl3ftjGuuNYa/9MHXa9IG0XRYXPZgGphFKlXP9l00bmzR79tmd+T1X7u8XuvFWfl5dc86AIQdL5uSQQNRuxupkJHlAERP0JGiju0w9KbtH9TyDLAZwWB2QCSykBYVC2w/fH2J+Z8QPvgSiMI519tNP3z0y/rMvsBJZoyKm7b/oDaHX5A2fqVKU2Ostgx0UMItG4FxquNpOGEgzW4CrW293qy8ndyDVquU5/PSwc7w07at+ez+cMrtEehYYCBbUOcHFqp61GalEKbEJtjsBuLDcHNtZqLGVgAgAVhfQ1j+XU6bGXMQ8M3ojSN1KVJlUSWGBsCK11HRljbPGvnXMXYsClXSl1exYOe6RwC2hWAoPDoUF/5IlUkvExh6uVKfO9oC6T22GsLBkMBisBYlJbgyxeG5dh04nLVeuhFtkJ1UWoaqpuCDzLm60F526JKOvNWwUgBwOc/IASDxr4Xhw0cJEGTwGFmwuiRKl4MTRq0Zc0JumLW2oMoc5Ro4HJ7KeYWEMatgrBByILb5EaS+wAzijCCWio0+VqVjpYGjZMqdMcU/uhnKxSWAgN0nt2mkPez8U1/2Lq/HO7ZEakZHO5aKeI425eEPAiCn+LggqzSd6sCqLneoRY7iZSl3+f0OOSpsff/zxxEch/LhftblW/IqtTZgDx8iWIAjgwAJLykWuhu1x3LgYQeOseeK0pxnz5F6vXLs/cD8XZQpUlyRhYWFp2IP95JNPnnmUe+jVoUOn/fDdd9R4U5YPRvXsNanR5UuXde6cTxraRxmX9h003v1f7vvDnDnzBhoFnkqsUuPtXZKh5/3r5i1Nmj3b7PE23kd79Z57dsXqPoGSG0zYp0dDLzIQgaNeBfGohU7IY445Fz8jgWy72trjCAyHY/4WGHb5vJYiyg/mhfpd5fjxqKlNm1+qLzOEyUih9bx4a6N0vKqLrHpmrIyZW7Xgi34uGCHbheVqKue2nTPAJT8/pX/CtrCCynEjMFiktumVgQnubQdrlJUxBJumspDRFTlqc2syraonjOO/EyZWryHmWN1YsIYiKYwBbDKaJwUYk0iP45Bl8Ciob84hGSytcSCcArJBADsvQnDpUucjyz9xMKJs9OngqMizppBguzE4NAVKhV+AysYkjZO9UC9krpOd/+CD8Xu++mZ0adSNRy5wjlCpWnSY0IDjwoxWmNPvYIe0uuBBXwYL/HiTAWSbm9Z48IQDp+JRI05GbGvzAo0vKkWmRWVufCbwRckSKjZjxdBkQABEVaywN6Za9YORZaJOG4KDMwnPZ5piy54BY8D5gkqnFBXm9zpvcTXegkEAh+Ov2azc4hx39z/n5v3Wwtksx0GZMmXO/vvf/x7Zo0ePtY+K+3/nvFUW7twV7X4WP8i2ZtM4DoOSwKhC411oaK1euKBEQ557YaIZdYOoaoPj5xp967vvvDfh81GfTyJhBDV3Hmmb+MnEkaPHfDCFKkTSam5VDEDlgiIwecqUYcOHjyzKsLk4oH+/mbNnz+2FOX9cgOESTdXCVH/u2Lnz8Q6bK1s311jaa8Ch0FsZhHe6QCCoHIbVrQot8EF+CGTDFhiesk1pxoBwADaZhbOcAJ2nT+8ROPDlJY90FxThlw736T/n+spVfUOtmWAEmRo1GjpT1bOpMaN5HBlNN/7PmydlObDjIkcUwWk0wg1GsL+4aGED0qr5kYKcjjJnZo+Zr735U5RdhgAZe6Y5cEt2WuGOTjbmVNXOAFXtDf/Ddj611AY9C4Wy5GUajeAWTUpgQJjD4u93wxTin+wW2GxDqF8yI1o8Zr+Qm6bgwEyjf9AtU2hAKoQHJ4F/cCJERzsgPd0DlSu781NMVlAYKYcPB87t2uNKibQ0iyEnG2TMSbOomI7GW/UKcKM610g25BUfwZ9Ul54T4IrHCYzJBA6OVQST2WaymO1I3EJEQ7YhKCyJN1uyRaMxQxFZp8FizgqKiLgR9sQTZ6BkyXMQFXURQkKcNAGZnu75Jxjp+13LojPez276ZfOvre6l501y6VejBCZ63dgiJYo8YP8zbijYgd4p5YzP5Y5gPhmDK7Vq1Tr0Ut8+M3r06DEvIp8pwvuFzbH9SpPSvK1chpEcj1p0hePiveF9l8sDBm+oHL1tFKZxOLCf+a+V6BUqxFx6pkWr9WM/GT/RF8peWLDWBwvWvEWxaLxVSVS17ezjsR9/MnbsOKqzXRRbRkZGUJvWrdYcPHigUe6cN20Z80qH/r4noWp1Hxas4XELNWx+GAksFizpG6Wo4VXGGyLHHB0aL9wMCgccYcGNetZEopSh2MRtDfIHsV6jhCazZ7Z67HLdu7fWWNSy0+HKEgGHM5OGRDGshOYPOaxUP1t9qat1nOhlozAlhogZSMcQlDkQzgOBoYvmNicdOmwr6Jv0l7r1E6VjRysHoOiEDbnAVc1piSFgx6eHisJQGn46lDucvjK4GAZsvAHYmHJJzf/v83YgoSh0SScElEgBk8fmy2KxgsbhfsdXfojvPnv424tLOxwQiikel42me0TsccXwvzeSgsYb89ZYJa/GWjDVQCALFMgI8of24z94k68RtwOMIU4wG9GhBrArCgQEZDwsT35RYVHU5y06433/Pm98ljleDaFiaJk+I1hwyai6z/Qe8RasYZgajTtuderUOdShQ4flTZs23Va1atXEYB+p7HmN93EsDKcVEjxP+6Nxw1C5h2pIqHlrTVoT27vw0dUqp++mOqWLD0lVCtTy4yajAd595+0Px0z49IGUrXm9b9auXPt8x84dVuL+WkpKqyFA1cRuXbv8tHjpcpRFLZCi3QeN88qVP0qVL1f5iscjoc9Cuwzo+50Wh8oQGRl5Y8fOnU3Lly/vs1axQjXeyt69pRd16nzZkppKwnA1J2EYUSVyp6KRjBqOZd0CNdy0yhr1g7HgRgQ4ZfaDAfEz25HO3TY8CMzi9vnipg0Olth/olaoPQesmqoUraBHz1tVKlf9b6xGVo0iFn2hJ27D/KjJADdEC/Qe/0k/YdjQPKlZ5QcDJTGxzJKnG14qa7WCS/GAxSACcTi9rGTqkTGESwvNaNU0pjlUrxvnZONYSDMHQJt3Rr5pGv3hN/kZS3H97sk+g+ZeXLGij39OBuACJ1t2gsiLAG7kbVPrGLAKn3oImO/HYjPvdXYyBJxIIVu98qHG8bObkrjHj2SoOF2X4mi88WqvWrO6XceOHYvF++penjeGzHHRQN8+an/3/yRpQfnf5s2bbt2+bUdjNNy4CJG9oXW859FoYStc6VKRKWt+3vBM9erVfdIatfWXrY1atmmxAwtocTGshcu18DzLEuVWemaYL0lQHub+XrZs8fM9uvdYgY+42oeOzIQq9zwWHVavVv3wup/XtyxduvTNhznug/YtNM87c9Toj7Z//dWEMEEBV2Y2WJCG0cuirPGW44uOlTFwjgFZzAqrGmOpZgEcLRrv6fDZ180et/CgsnBem59eH7bhCasTeJdTzWl6CexV460SiagNRgCMIEKOy0n1uPEGyGEAbgUFQfRLvac99dW3wx50QX3xecbsed23D3ttcZmc7NtVnThGfEBpbh6vEPW6VaY3VQVO7WdGYZUcjofLfkHQe9GceqRNmzxxgvti3IV1DGQHnPV0U3uF9EwSIGMhn0SvE+Jg8gq0YGAUl6BYu0E9BuyZxeY2pERlWcgEESr36jnribkFpxhWWHgU9XmKo/HG53n5ihXPd+nS5YG844WBn2a88Vw0p+09qVpxo0aE5OvXzQ/q5z97NjEmNiYOC88IGnBNMQzD6ViNruW/W7dp9+vPG39u6Yu5YVi6ZvVq+y9euhyDNiN3ZT5OBD3cBfMWdO7Rq1e+5Fcfday9evVYsGjh4l74fewGyp3zx2K1Ll1e+GnJsiWU6taXW6EYb6zKnduwaWrJ9AzCExcVsmAljhotNNLof2thRuI13iINQmJukIEzFh66L5jZlm9fcNKRvgRVO5aSlGTe1aPbZsfefQ2CPao0povhIMuFNdqqR2airEYEFBlrubGLGnt7VenMbBkgw2AEvwZPJzT9ceYzhRVuvvjppNEnPh07vrQt5/ZDrkYFVFlWepNKuMBSXwU0ekJ/kUHEMfMiyDVrJ7aYFt+M1K742FU1U870M2ciScWK1+51Xyg7d1Zf/Fznw+UzM4hB7TSHHC8uJqyC9fZ0Y0IE0yBYiIgeA752sLbDzvKQbfKHDpMm9ieDB88uiHuvoI+JDHg6Per/DpuvWLky36pivrqOeTHeySkpedLznv7tt68OHzl8GubAtdC6SkKkbuiBY7vzV1996TNt7W7dXli1ds2aTopHrcjHxw3TDTanGinv3q3b6sVLlz7vK7zyehwUJomJKXfU6XCEYioEyWzUNyEAcpw7nU6YMuU/wxCvvB4zr/sVivE+9vaIcRdmzxsTkH4LREYNrRIJO5mxkAfNgprzVVeBasEW6i1bQYYbBh4Cn222udm6jVT0/HHarn32xbCECeO+fcLtAo+3/5EXDbTlSa3RloGRVB1plPxEaj3idoJR5CENi1qCAuAE5rm3bSpHqtcrNNW03YOHzUxbOKt/GasNRC/gWKh2R5IVQPRoxlvdwbt2p974TdEIphYtNzecsOo5Ups8Ekd3UVxnrLCHFWu7r5s1b8yNG9fLterdbULZIT2/JhX/2laVs3De8xuGvraytNXqjTvgzYu1+JjXRpkTlf0NN/wNIxVowNWiPoAsgYNroqAMmB3fknTutqUo5vqo51T27QtJmTfn/YQVPw8LrxB7tsFHo3qSZ589+ajH88X3iqvnXZyNd27c1W5kgJQ8Gm/8bt8+fX6YN2/eIK3ITdOzRoOKfOz4LsfP9v2+3yfMYhia7ta1B817awWCWPGOaVVvTl5J2LGncf0m9Xf74p7K6zHee++dD6dMmfIJDgKL57Rqc0E00HY7pK66dOVyVFRU1D0dgbye5177FbjxVi5cCFz1Qtf9wh+nY8MlN7gcLpo7VTW07rRKqRlTVTEMgzoCMHCT5eByiRDoM/2rFqTTCw+l7pQfUHzxXSUx0TK9Zeus2PSbJMBuBx4rI9Fzxb5m2tPtoYxhtKcTGYlQWAT7eSXkJgOQLRa4wLLQZfz4Qea33soTH7hPxq0owuoOL6yHbRufLZ1jo2QsuKHxdmKBivcknIz5bvUX1b9UjROOPcVogrCOnZfWWTy/uy/GVNDHQBnPG1u29P/z5419L/62rUFpgxkkux1c/hZIiwpO7vrJh/0sz/W+Lf16ftLnrx8dP+6byBzUeFPvWZCxnE813gy4aHU5XlvksFLbAhmQiBo2zxR5uOFvVvovmFeFPNuuSA1fXrFVriQGH/9x5ojTC5e+5ZeU7uef7aEV8xeC/aDqKy9NqTN85FgSHl4kAkG68X7wVbzb886v8UalrxLh4dc5liOY10XjjRv2imOuF9W+MGTcqFHD3UuWLWsTns97A89XMiL8OkECc2xVw5oSb0sa5U2XCTRr2uzXX7du8Umo/sGIAmRlZYWUKBGWarc7aXJMW1RQFjp83mUJatasefzgoUN1CSFqMaoPtwI33o4vpgxb9cm4b4Nt2cB7FAjGVgM3ZrK1oKtaTn+7WplSS2LBDwfXDUaIeKnnrHrffz/oYRWefIjRIx3q+rujJmz5+puPohkA3q56sALPcay2tAAAIABJREFUQqZbopzCSI+JpXqUD9hgoL3QTrcHgjgRrATgkiBC3UEDJlf48st3H2kAj/gl5U9FXDy03THj3h0VIm05tEoaIyQYHcACLAz/4iJEXWqpoX/8m8Yq5iQAyUYjlOrWfWnNObOLtfFGidPs33Z1XDblP5+FowpSdg4EWYyQmZkJJlySsALYTUY4yXPKyN07b/fVn/nik49Ojf9kQlmrw6u+xYGNmOk9bVBQIQ8padSVDfrguLShxEP4/4kMWSIL10wmpd/WDRGkesOUR7xUhfI1ZcuWuqcXLep7bP26YUrWLRAVGYwuBcJkHiSZQCYrwOVgEzT/bPSb5Qa+ViTFibrxfvCtcD/jTd+1Xtf1YTxvPOPatWtbdezQgS5qkaaXMiZiWyv+D+mJJQ815EOGDJ327bT81+u81OvFGUuWLnkF+89Fb3GcxvKG9UFIJfvtt1OHDR462Och6nshPHBg/xnx8bNeoYt2WnCtcsCj8UYSGdymTP7PyJHvjMyzCMuDr+SdPQrUeCuKwv0QUsJVzpZDTJ4c2m6EfcwsuUOdhy+zO2ZAFXLAIh8nz8FZgwH6r11XizRtevhhJlXU+yq7D5Vd8EL7i6UzswBf6SyGzb1scdRYczwQD1UlBye4AckRMVPC8SyIrACXJAVI/QYnOsV/35DExmYV5nyUREXY+NGLP3s2r30mwmbzCmpo5S0q8xul1fF6kfTGldX+fNzcBCDNYARSu/ae1t9NL3YFhuhlw82kGnvnzhl6adv2XsK1JDHUrYAFFyWSm2p8MyYDeAgLWR4JXEY/MNWpk9Bq4Zw2JCyMEk1c+uHrQYfefv+HJ7JtXuONkp4muuhE440Ur7fpG72VHbgWp8Q72P/OE0hieei5+KdnSMcuvxXm9c3LuZDG17Vv3/P7VyztcuG3bd2CHU4QrVawYOuTgCQUyGHPgdXlAZtggOQgP+j67Wftgru9VCSV1brxfvBVzYPxVpKSkvwetp98yODB38b/GD9MwcZ0b6ic0qR63NSYam1ne3bubPx0Prm99+zZ0bBB/SaUH1xLS2mRwFx0rPKR33+v7uue6rsRnjx58oh33nnnP1i0h213Ti8ZT26SFlEUlVN/nC4VHR1948FX6OH3KFDjnfxdfN9t778/p3R2OhiQgUXGHCACj/3NqgQo9nejR4etNRhGFmQJXCxApshBibbtNtVavqbNw0+raL+R8Pao+KvTvxmAxs9IX94ycFRsRKUWVZPAatKARRIWCV/4KC5GIN2jQFaJkvDCvIU1C5qI5X4onRs1esofX385MtxuA5cqM0SryFV+cfVxQepWmivz9jPTPyqEhtJzOBGSA/2h2/SvmpNuLxZ4T3perrZy4EAl62+/NDm6bu2r1w8cqREp8ODIyAQzKiqx+LJxgVE0QY7TDjZehGSDCNawkKxu7787JLT5sytzc38rCQl1l7RruS86y1vQR3vDUAgV2TZU+leaBqJuDfLiIXZqJz+2RCKmsskPnujSfVqp2fGF0kGQJ4wSEmpmbNjceOfKFaOtV86Emp1OCJY4MCgM2D1O2k5EBAHsSMXK8pBuNCiNBw38vyc6tJ9JGjVKzMs5CmIf3Xg/GNWCMt6oqNWkcZPNpxMTn1LFTFjqfdPOIe+/0YhHRUWdPZKwu4FfyZL5Erxp06blps2bfmmFBXK5aVo1OlKkk/Xz90vdt39/Q1/3VWsor9+4sU37Nm02oCii3Y5RNo3ilqMMcLSgjuVg7NhxIz8c/WGBeN14zgIz3ujhbHlv9BbH1l8ahdmyaViV9r+hCcCXPL28EvXUsIKZFqoheYssg5Vn4XyAGV5evqYyadr01INvzeKzh7Jle4svevbY8lR2JoQ57CBTwhkJBFS4kmUaPqfUocQItxQ79bTdkosqRKXLMmQF+EPjt4a/Fzh+/KSimpVt1oKem19/fVGELQdc6FZj5SRlv1Nz9FQsJlfLBnqT2C2An7FYNc+ykG0ww3mWVV7d9usTpFatS4U9F6p5fepUVNquXfW3r1wyKvnggRohdgdEotdoc9AokBpFYMGG2CMbktkMObIE/pViz9Xq8eKXwaNG3VO1DiNKc0ODXdHZGYTD/BsubGSMo2A1uddw08UM3uscbaHjvGQ8WtGaW2HgstkPWn7z9ctBA/rNKWx86PAUhYdThyNTNv7SdvuCheOzT58NC2c4MLicYJIdtHNAlDnIUTzgEc1UAMbBGyCbZ6Bxl67Tyr0+dBKpWXCiL3nFRDfeD0aqoIw3njnxSGJclRpxx1mG9o5RRwxQzpTjvbzoqlf+wgsvrF62fHm+KsKPHj1apUb16sewQ0yTCNX6qjVPH0lnZEVWNm7a1Kh169YPLYRyPzSxz33GjBlDBg8ePFXbR2N541gCEhLWoJ3jGKj8ZJWDO3btbBUQEHDrwVfn0fYoOOM9b2GbVcPe2OCffRMCvL0zKo2eANgkpoAdDDwDVswBU9dEJb23gAAXBQFCBw2Y1XDq1wMebVpF961NDZof9hw8UiPElQMGxXU7fHon8KwaDTTiWASGL3vaJicBZJkDwdiy2aZG33zTmURF4cdFsimnLkTPebre+YqSRDKt6SASBcyEAI/a0JJM29iwh5mg0pWXv5t6lV7jRYlmwASZvAhSdFTSc2+PHE4G9Vtc0JOhIfHrWeUz92xvn3rseJ3dG9Z15yQXhJgNIFkzQJQUCMPVcrYTAgkBGy4WeT+44raBLSgIkkQGOr76ynule/eYQ2Kq/89c9OXBQ785vmDe634eO/BOGcwiCzlOLE0DEFkW3JLaDKg2PKrdBZrgjLr8AUgGFlLDSyjdPho9hO/QZl5htAIqylYOdjqrpW/9re3VA8eqn0lI6MZlOyCQ5VUlM4alLFYuyUU1wjFykC0rkGP2g2SDAMF1au3tNOrtN0jz5gcK+nrm9fhFZbxbt2y1+ddfNrfUKq7RaGDVsVq4qUBxqjY/cuRI3FM1a53QlK40ZkS6iFMrjh4pbK5do4kTJ37wwQcffIoCOuh5432EP3HT8MF/r1yx4vmO+ex9f/ONN76d+u3UYcheZuCF20xxmmY4XgdJUSA4KCjto9FjJg4fOTzf3q+Solj6juz73fz583p7Fwd/SQtoOHi54pUN69e3a9O+/ca83sOPsl+BGe9t9Zqcce7bFRskKkDcahk9BhA51gwOSSW2QI8EebIlBajQAsfwoLACnLdY4MU168uSxrUvP8qkiuo7zkXzO68a8MaKJ5weYGQnnSNtgvOKVKgPiuqhovHGVVuWDCBzDDhYE1y1+Cl9Ni2JJrUbF/m8zw0Z9u3vM2cNCyIKhKPAQlYmjZ6g2JXD4+0KUFgQKBscbmi8ZfB4vXBGZsHNiJDJc5DGMRBUNe5Msz69xljq19/rC08cV8Fw8GCsJ/VGRPblqxWP//Zb55M7drdms3IgUhDBaM0EC8rxMQB2p4tW+1P8qUIZC1ZJAsE/GC7b7OAICYbu77/zuum555aQ2Ng8hfWUn3+uGd+376HILCsEuRw0pYDXlOV5sLmx4lyVOlWrGfAeUOU9VV0w9YWG/d63CAspAgdCpYrX27429AO/p+K2k5r1L/rqHlaOnn4CblyNzrh+IfrApg09Tu3Y2tpgzYEwhUAIjtLhAcGDCwu8W1VNcA/DggspHnkBUKYCr2GNds/NqvrKK9+TFo33+WpsvjqObrwfjCQa71o1ap7QCoN9bbwVRRHatGmzZvPmza0pfZMig8VoBqtdVW02m8xU0xsIoxxPPFGxcuXKj0wVmpKSYunWpevPO3btaKxVuWOxHIbt8Zw2h53SvWqiKzHlY859/tm/3+7SrdtDE+YkJSWZN27c+PzETz4d++fZP2M01rTcCwVcRGCKQBvDhPHjP/xozBif0cPe7+oWiPFW1v3SetYLnTeW9ziBp4Fy1GpWSfh5EGm+1IGawywDjKTmR3iBAyvDww1JhmZvjZgQNvmzMQ++JYvPHsr166Z1fV76hdl3uEGwDcn6VcYxVVnqDjUmFuOp1doK2GQJSghmuEUInBdFaP/he2+E3ydUW9gzVY4fL7Fp4Mt7lVPnoi3ZmRCUi8KV5uzpHJBpDVXQVKNEq6m9rHicwMBNlwxG5FBmWMhGHPwCwcrxWaUqVz4WGRN73lIy7ERodPQZiIy6CJH8ZZCwbMy7YSWItmVmhkFSWjRcuRqVfOliyezUlCpJly5WunX9SqWcm8kiQUY6fFmIDNXAlrIVCKD88Gpkgwb+qdwqBw783OAHt0QRgp6qnlC1Z+fZwc2fXfwohYFHP3r/i+OTvnu3kqSAwYPsebgo9Zbgy5q0DJ5a01jSFMbUnfA5kBgeJNEA6bILiJ8fEJN4I6BM1A2/6PInSleqdDy0ZtX9EPXEcTCjgCq67B4FuBIu8CQLYBUZqm6hbY50C1xNLgdJaVVObt/V2JF8q0zS5cuxObduhfJuFxC7EwRFgmA/MzizsqiHzSio/y2ByHCqFKTLCdmKAlkWP0hiGWjQt/vkGoNenkmq1i+26aviZLy1yu3i5nnnDpurT+6d20br805KSrI8bMFa7vfSlStXSkVFRV3hWY7I3kpzlBPVBDq0FrKuXV5YtWT5shfz0z6VevlyZN0mTbZdv3I1Fs+BuGs95ugZM1SL3EWNKn6OC/ZqVase6dSp89KOnTuujg4Kuh5Qpkwmdp7lnoOiKMbU1NSA7Oxs/+VLl3adOm16/+vXrsXgwkBbDGgGXPse/o4b7jNi+Mip//nyP68Xxvu6QIz31p69f7JuWN+jlCRBljUbTPhioD2AHpoTYIkAdvS6eRZkF/KKIRuNAa44nXCzZAT0W7c+2hfeWWEAqJ0jdfIXgzd/Pun7EtlWMDpdt8UI0NvSdLrVViE1TC5xWNzFAC8JcEn2AGn69Lkuy5bW1CqaC3Ps9zuX8lN829nDRq0vZbWTEKcD/BigOWEaDPM++xg6R7qWO68CldIWa7WoJLVbVf6h2XIigAfZxWQ3uFDDmiPg4Tlwo7fuTTBQ5SCGA4YVKMe7LEmguF3ASAoIBGsicCEoAet2gyB5wMAijjJKaQPHogISgII611SyFAA7sRUjBw4igJPhIQtYMJWNTun41ptvQPOGGx/FaGt4KUePmre+P35X+q/ba0RRiVs7eBgPOGWV8lZdM6itj16tNTonaoPBAybBBG6XCzzeEkYsXsRK3VsuO1hNfmBH+U+QFQeRQRF4IviZbf5BgddMfharx+WyWLOsftaM9AjZ4aILZBYLPxErhxNKMiKIbnzesKhEjXJZOCP9PdNjBQtrArvkAZljASVVsIrcxRDIxsK0gGBo8XK/8ZFt2i0izZufLg734v8aQ3Ez3hrlaHEKm+c23mjctEWGeo+q/nh+jTcea/bs2b1ffvnl+QZvpblWtKZ5pm5Jou/GcePG5ts73b59e4MWTZti9bm6ZiYMiKIIdqw1wiihlztDC99r4W40wnFxcScrxMYervhkpQshQaE3XG6X4fKVy+UPHz5c8Y9Tp2qlpKUGafvjT01cRmuF0+Q+ccGA4jO4QGnSuMmOpcuXtc9vT3tenzefG29l69bac3u9tD8s9QYJQ7J7N9J/YgGBE0xUbgNfJAy4CQMOxQO84FWukRlIMhig6ojXJ1SY+MXj5XVfSQye36hNWkTSTWLBEKoig+wN02Ixk0aXefulj1rWqKBmNoPLwcAFgYeus77tLPYoGm7e/3Wz2ObFd5//9qjFUWnZ4C87IYBjwIqKOV5WFpxfbiOl9Tdj3yXyNjgloEYfleKyJQmMWKCnKOBQJKpNrbCq0pJq0RTAlhMGf0oq157CYicC2jxCSRCoxKasAIreu2wOiq3R+32XfKeQThAMYJNksPM8JCkSZPqZoXm/vpMq9+qymDzV+GBeH5AH7aecuxXwXZd2p0v+cSEi2HGLRpowWK75wzT/idEWWqfPAVGwV56ASLsMrJSMCPfHn0iOi3EoluVpNbeDGn0vdTDDqosAXAnJCgio+OT2AHjcNLrD4yIGc9TY6oa5RrcMgso/TKkq6doJUwa4yGEYtOfgZgRwmUyQDDLYAi0QUav6prod2i0MadYKIxFqGe1jsBWl8d7szXljya1mFIu78da80dvvIx8abzzmwIEDZ8yOj39FCy1jyDzblnNbqEM774kjiVXiasTlq0th27Zt9Vu3bLVL9niY3OFrzEmi543XBA0sKrhhu+4dPpG/3tiUGsyr9obHwbGjUaa927m+hwsCNOTYApe7Fa550+Y7Vq5Z1bkgC9TufhR9bryP9ekb/+eyJQPCnE7gkeeZEVF7CiTZBn6cCE5c2Xs9Euyp5UQWHKCAU+JAqlTxZusli58ilSsXenVyft5RJ0a//dHpydMnRNpt4Cew4KIkNOqmspCpXb70d+/fEQVs4LbzZohq12ZzjVXL2hOCfUbFb3MumtNj7lvvLYpyuomQmQF+WFSK7q2XoIXaXa/rrXJ4qzzoaEsELB5xo9+J31FpQ3GS6GVKGLL1at6iYaamB8Pbiio/iofEEL3aTqjRwqifU4OFRyUseBQF3KhwhAaNZcHOEkhzSqD4+UNEbMUjdTq0WxrQqX08qVo1uSDQxbzy1lEfzL+ZsLtBkGwH1poFFu9CA3GhSROqMOYVdKG5b4ayRIHiBoGuhGSqYY+hfpwz3h+YkECcECOPTAViQQAWRE4Ajwf58dXgJ+0f/wvNkbpgxAWit1sN7JKKIYYnMAAvcSLYWQEMpUqnlqv/9IYqXdpPhSo1jhVG0Zyvr0FxNN54rVYWU27z+3ne169fN0dGRqq0gfnYLl++HPlcu/YbT544UfWOVLAqhUrfhl7j92LPnqsXLFrUgxCSr4Xikf1H4oaPfHN6QsLuxjSE/pdE1Z2JaAYaF7mUUEaS6H+5Dbq2D3rYmueNR0Bjjpsmo5rbcPft22/+pxM/He5r1bAHXQKfGm9l1+8V53VsfapMTjYJYRhw2jEPyAHHCsBKbuDxoikulVuNulH4IpEgi2EgzWSChm+8OqbMxC8mPGjQxelz5cCBMlNbPXuppgfAnJVBw7QidghRM4yvV1TmVuVXGMzz0zptnD8HtwQBLln8oM8P01qQF4o3/atyZFfc7MHDVwedv1o+4GY2WCi1qwectJVMoqpZlLMey1bRSPBedTROAIfHBSLmoTCIjHUPLEfD4Wqnv8b5rYaXcW1M1dZojlo19NRwe1c9KiEMAzwWxNEMOwcOnoN0ToZbiHRoIIhlS59q0bv/tLAKlfZDixaHCmNRpKSkWP74btrw3d9MHV/a5iCBNhuIirqIo3O8k1eg88IiTSMHkOkB2rZGldmwsMfIgNshA084+kXEgyYmMCeAeHjQO1fD4YiDmrJQxWHwHsNXF+LMMwo40Uij/CgW6CFxq9kMNlGEJI8H2vTuPbXs00/9aqpbP4HExBRrlrcHPe/FwXgj/rmNIl6HtWvXdu7QoUORKF3djVliYmJc9arVTmhh39yfaws/XxlvPPaOHTsaNm2iEqqg4cP7Vst94980rfPExMQqcXH5877xeFhY9ubrr89YvnzFi7hI4FlW9bYlD70uuGmV9rnnjs+OGrFSo1q38/O5qthRYARD8dqmPW8YwXj11demfv3t18ML4x1z9zX1qfHe0av3T+krV/Qo5bTTPCe2muQoNIIHqBLmjeLRVwy+wVzUA2Ehw2yGs8H+MHTf/gdK0j3oQS7szxMHvhZ/euHCAeH2bPCnr0+V31u9HbCbnachU3yNo/8tUL9KBjdwkGoyQ2jXjkvqzZ3bo7DH/SjnU5REAabt7Ll71sJ/pZ46XUmU3CAxVPgSDB4XGDyYk1Yrl7HeGnm9Ocx9yW4QBB7cTjvw6IF6c8Kq2VH50jHvjcInirdqU3Ar9GHDv7lZraVO1TrHRR9i6sDQr2AAc5nSqaVrV19Xrk7t/aZatVaQhkVHOar89lvFi7Nnv/f7qrX9LW4X7QNHxjXM03PYQuNdlOAiBxkUzSYCOTZsnATwN/OQkeMGE0eAoYs/RAZN8R3pVYZ661q3PRps1A1XIx8y9priT4ZAjuQC0T8Q0m12kE0WqFi7zqao6k/tDa9ZfRtU65pA4ogqx/Q32Iqj8WZ5DtasWdO4bdu21IAV9Xb++PkST9aqlISh4Lu3gjDeeI6xY8aOHzd+7GjtfGgEHQ6Ms6q+Loak4+Pj+/Tr12++r/CZM3PmSz/OnDUkYdfORtoxtUUVnhXD3jT15I0AaJ46/R3/R1Nc+GyicpkaLdAWAPgZGnqv961MnjRp5Nvvvvulr8b+sMfxmfFWEhODZzRonBYnuwmXnQ1GrxFzeknaBVmrb1SDGtTDQlk3YoGzHAMNJo17veRbI243vz/sRIpif+X30xWXdO1+JPDSZUMgOMBITZYaTtZEOhjCgVtBY4Z3B3qeEhAB+ctZuGAywoA1S2qQxi2OFsX4H/WcypUrwdLevfV2LV81/NBvW1qZHU4IFwUQM6wQ6HZCEI0v4EJG7f2m/iDt/cb5a61Sd9qmMJysetho8FXbhBS6Mq2LUMBFFJBFHpw8C9mEASvHQkhM7PnGHTp8H1mv0a9QMvRmcUq1UEnRPXtqHF25usv+DRvf9CTd8A/zyGBy2MDgtNGeeSwwo/+n/ri9IX2RVrePf9TKATBXrt5Y1MejeXSJJWBXUB+cAY+Ro8yEiJdV5MAdEuas3qT5kgYtWi5iy1c4CWFhKUXJHfCo91pevldUxnvs2LETxo0d+xG+2dAQoaeHL338HT3vlJSUkuHh4Ul5mUNh7FOvTp2DBw4crEUFkDiO5m210PDQV1/9cfr06YN8OQ5s6Wrbus32I0eO0HPihrhoeWQ0jMePH/eJ55173Kj/PXfW3J4j3x4xTYs0oNHF64PnxL+h16xtODbN484dNteiA7if5p3jMfr167do9OjRY2JiYs76Eq+HPZbPjPfNMWPHb5k4cXSExwVBlOxe9UCRChIvG+vV6UZlJSrXQCT6snYTP8iJjbnQavuGakWlSvSwoN2+6MeOBa0c8Nbv5I8/yluwd92WAZGcH8ieHGqO0GCrpJiqUUKPyClL4BQESOdFaPPu2xNCxo59rIrz7sYKebDh1J9NkhJ2VT+7b1/LjBNnWnrSbgLK9WGWFznQqQHCgjP0Nj1u+hAZRQwWYweCAi5ZATd+hkVXnAAKz4HDo4DN4wFLYBBUqlo1IaZa3Cq/qNI34MkKf0DFiiceJ0Ok7N5fw3XoQJWrB488feXI4W43zv8ZzkguWiWPq3kktkCOAwYNNHIiKB7AYnsPPiOSAm4MlUu4AMKUtUBL6hEzD8cCYzJCSFTpk+WqPflb+SqV97NlyiZDRIkzpH5zn/WKP+rzUVjfKyrjff369dAWzZrt+ePMmRi60MpVlTxm7MefjBkz5rbXWVhY/K/z7Nq1K65502Yn0JPETWt5wp+HjhyOqVq16jlfj/PcyZOxMZUrn9HwwYiEy+UCs9kMzZo1W71u3bruhBRMFOjKlSvB61av7jF/4cJeCQkJje7X6qV52Lnz37kX1Dj20NDQtKFDh07v0qXLT7Vq1SoWSoA+Md7K1ash31WsnFpdVojHng1BAgselxpCpgUz1GNgVW8Bee0UBWUcIE2WId0/DDp9Mn6w8OarM3x94xTG8ZRtv9ZZNeXLry7u3Vu/FLAQmOYAk2IHE+MGD8ZFkaQKOJAx/MJxkEMIZJkFuMJzMHLnhkBSvnZmYYyzMM5B6TZTT4pwwxqWcfpcdfutzBLpyWlRWbfSQjw2l4mVPDzHMgYMl1ttDoUVBQdnMWWKFj+7OSAg0z8g8FZASOg1o5/lKlSpeA5Q+4/nnVCypPNxU5W7H97IBwDp6QbPhQvV7RkZZVJvXIu4lXwz3J6VHSK73DznVgzUP5Ek4ATWIZrMbsZiumnw87ObgwOzLMGBSQb/wMuGUqUugNFohaAgB+JEfFBoVBj3SEGco6iMN84Fi7NGjBgx7cCBAw0vXboUil5lp06dFi5btqxfUeRBH4Tv2bNnY0a9O2pySmpyGEMYEls+5uSId9/+LC4ursC8yA0bNrTu3bv3woyMjGAtZP3kk08eXrt2bffC8F6xdzvt0qXAucuXP79v795WVy9fLWHNsQampqaUTElJDcydizcZTWCxWJLLRJe9YTKZ0ipWrHixd+/es6pVq3YyKCgo40H4FubnPjHeZ8aNezfx8ylfRNpzwCjyYHU4AGUaVEFETYWK0PYwD+tt9/FIIAeFQXJMufNdZq+tTuKKRgvYF2Aj1zUkbKmZtPtA3ZR9R5tmX7lc589Tx6I5HgBbllxOXOkSCIkoeSyqSuWkEtXj1oZ1fm4NiXu8GOR8gZV+DB0BXyNQlMZbm8vhw4dj09PTw4ODgzNq1KiRr/YnX+Nzr+PRd5aa9y2UDpfExMSYffv2PZ2dnR0eGxt7qm3btjsIISr9WiFviqKIFy9eDMrKygrNvHkzwO52+yNlNyuy1kCT6RZvNjsjIyPTipuxvhumfBtvzHWv69sv0XzqVESQ3UFFONT8plpqgwU66Hkj3zUWH8mYv8TEPzHBn4oM3efO6Gl68aUC570u5PtDP52OgI5AISFQHIx3IU1VP42OwG0E8m28PVOm9F0/7pM5AVnplEVNwBYXFosCXJRQg/dWxlIWLW/NDTI5ZRIRkiNKKq9cvpBbs0O/NDoCOgI6Ag+FgG68Hwoufee/CQL5Mt6Y45wVEu6skJ1DBAWbnxRwedQoDFaSU81V2iCGLFFqFTaqUGXxAOfMFugz5ase3MCBS/4mWOrT0BHQESgCBHTjXQSg66cscgTyZbyTZ8f3TXh95JyS1kya4eY5Tq0Q5g3g9jKpoXAFbgrBrl/0xAGSDRwY2rX7pdHnUzo8TjSMRX619AHoCOgI/BcCuvHWb4p/IgL3Mt6IQy4+qHvDgi1Cm18dtBp2JrQKzLF5JQVRgpGn5BrPb09aAAAKKUlEQVSY10aeap5yOiMpCdLNARVoPyuI0H3+vM6kc+diwT70T7zw+px1BP4uCOjG++9yJfV5PAwCQwe/MuP7H358xVtidvurDzTezqnfddn8xb+Xi5cvQQjVeeYhx4nczKjZzYFLcqvczBxLvXADD2CXAdIUHkq2bf9LrfWrWj3MQPV9dQR0BHQE7oWAbrz1++KfiMAjG+8N9Zudlw8efCLAY1MlGnlUEJPBwIkgeSijOTiRfZpHAngFDMjTbDRAIstB/7lznyFduvz2TwRcn7OOgI6AbxHQjbdv8dSP9ngg8EjG275xXfOfug74rYLdASbiApfHocoYocwlK1DuVyPw4AA32LzqUqIH4BphIahTh4Qmq1Y1fDzg0UepI6AjUNwRuJ/x/uPPMzGxsbE+Zw0r7njo4/tnIPBIxntb7xcX31q5uXsZhxs42abyefMEctwoF4GV5qjfLYPAspCNfd8MgMHoB2cJBz1/WlKLtGt5+J8Brz5LHQEdgYJGQDfeBY2wfvziiMCQQa/8+MOMHwfmOeet/PJzzdkv9T8UmemEMJcEjJxDOaxxozJFDModquTmPFKDEoCbHgCrIEDlF1+eVWnODwOKIxD6mHQEdAQeTwT0sPnjed30UecPgYf2vM/277/4+JwF3QMYFkySBBZKXO4GN5VbI+BiGXC4JBAEAMkFYCAAKBacElUWes9fHEeaPF0sSN3zB5v+bR0BHYHigoBuvIvLldDHUZgIPJTxVvZvrbGgecfDMU43EIYBl8sG/sCDSFiwK6jTClQ9C3h1CopbTYVn+AeCoUOHeY0XzOtbmJPTz6UjoCPw90dg/vw5L/V5qd88DB8iqyNqm2PI73jiidiCFNz4+yOrz7A4I/BQxvv3NwZ/cyN+3uslbXbMbNNmcFWlW1OvVv+FoXLs6ZYUADcR4JzRBH1++bkWadBAz3UX57tBH5uOwGOIgGa8cehUCIm+f1g4evyYbrwfw+upDzlvCAx+ZeCM+Jnxr+Despq5Bo5Dzca7NuXw4cDv27a5VSkjkwQ4HDTLjUQstBqNGnFJpXZR7jC8OAHgpmCCxiPenRz4+bh38zYkfS8dAR0BHYG8IzBnzpyXBg8aOA+/4XF5gLBqe+q+/fur1K1bt9grfOV9pvqeOgIqAoqisH379pkzf9783vg7z7Pg8UhQokS49b+Md9qHYz/69bPPJ0QTD7AeN7XQEuUvV+lPseIcucy11S+adIefPxxlBGXQ5vXlSb16F3TgdQR0BHQEfI3AypXLnu/SuetKliWgSMjnCCAKIixeuqRtp06dNvr6fPrxdASKGgFFUQwNG9TbsmfP/gbobaNOOnrflSpV+OMvxhtlP5e17nCl9K10k2jLBpZ4wI5V5djDLRNg0dumhttrvYHQArZUgxni3npzfPnP//1xUU9WP7+OgI7A3xOB33//veHT9erswpcXOg0sz4LbLcGkyZM/fOeddyb+PWetz+qfjMCFCxciKlaIuYH3OXrd+BONeNeuXRf9xXhfGP3huN8n/t+YspIb/AgDDsUJdk413qKHUKUwfGjUULoCTpYFSbDAOdEA/fceDiMVI9P+yUDrc9cR0BEoWAQiSoQlW63WcHuOnb6HeI6HUlGlz2/fvr1xmTJlrhfs2fWj6wgULgITJowbP2b0x6MZ5k6+G0ewYf36528bb+XPP8U5z7ZIK5+abQm02cEDbnCBDJK3h5uTATiZUE5zfGicRAarwEMKZ4T6gwZPjv5ykp7rLtzrqp9NR+Afh0CvXj0WLFq4uBdHADzeACDH89CzZ88F8+bNe+kfB4g+4b8tArt3767fqGHDBJwget0Mw4AkSeDxyHDp8p8xt42366tv3lg28u2vy0gyYG93puwEo2gAcDooOLQtA3NMCup2o/GWINUoQmbZckk9166pTmJisM1b33QEdAR0BAoMgSNHjsTVqlnjBIdqhtjqojDglmjjKgwYMGDGxIkTR0REROQU2AD0A+sIFAICW7ZsafDMM8/sRrMrijw4nW56Vqz36Nunb/zM2XNeoSZZUQ7wyyu9fCPi6rUQMSeLynqKRhPY7DbwU8nUwIXPCZaoKyzIQMDBAtwwG6Hhvz54r+S//jWpEOajn0JHQEdARwCGDBk49Yfv41+7DQUhQLzckU8//fSeYcOGTe3Vq9cKQgj2uuqbjsBjgQBWlp88efKJr7/+ekR8fPxrHo8HBG+eO7cBP3vuXMXy5cufocY7eWH8C1uHvLMsxi6By5NFjbXBJEKOzQkmbdoMgEv25rs5EbIB4FpQoDLg6GELiYy0PRbo6IPUEdAReOwRSEtLKxUaGnoVO11pKFGW/mtOJSNKZtWrW3dLqdKlrinK3azQDwcBUZDRonhvCtF6gIr3OPMyuvziXdRYPMz4Cc8qLpcL3G63cP78+Srbtm2rz/M8/u71tFkaKmdZli5QR40a9cmnn346Gj+kN+Xadi13ky17G5TAEDkrA2EkQC9d9CLNEhYkBavceMjE9jG/QEgmCnT7/LO+5NVXad+lvukI6AjoCBQWAgkJCQ0aNmy4CxSFcCxHX2xujxtYRm1pvZdBL6yx6efREcgrAjSazXGAXra24b2sKAqIoghOpxM0Y969e/eflixZ8uLt/ZTv4xut/uijnX630sEkOYDjGVDcMlgID5KiAGa8JSDA0TI1BhjBAhclF8i1Klx8Yd6iaqRSJXTC9U1HQEdAR6BQEVi1alXrzs8/vwGdEIYw1ICj0UYDji8/fdMRKO4ISIpMjbRaiOahkSTs5UZPG/+Gm9FohLZt2y6Ij49/PSgoKOO28T5Wp0nSxZOJJYw5VjBxAC5eBrvLDYGCH1hdbnCZTeCUFXDbHSAajOBmBCWJBTLk+//0EHv0WlLcwdHHpyOgI/D3ReDkyZOxbw57Y+aWrVsaodHWPG405ihXrG86AsUZgduMKd7MDhptXHhqhhu97n/9618fjB8//t93z4P82qDZ9WsnT5UsgXSD4IGbnAusPKcwRkt2ifIVrphKl/7DFBqaUjom5lJYRMQhsXbt/RAdnUUI0Z+M4nxX6GPTEfiHIKAoCrN69er2k7+Y9O7uhN2NNRYpgRdu5w61FOE/BBJ9mo8JApzAU48bvW1CiKJFjIKDgzN79+49f8SIEZ+UK1cu+V7TIchlfnXKNzPYq0nRJaMitkOj2vugbNQZCPa/BebQHBIXd+sxwUEfpo6AjsA/GAE04nt27qx96MiRBtu3bW9x5eq1CLfbZfHqKhGghWu0+Ez7D1to7hSj0ZJ1KuKAhNCM+m/khSaYSEcNRcH7n5pYL74bOlZUO8rLqaX9O/dPHP0dqsw7c9HwuIPRX+d5d/Fe7v3zgsjd+9+rGDB3zuN+/9bOlfv72r73mq/2N/V7xDv33Nf/jlzHg+Z0v5zM/5qLen7tvCr6JMduUwICAlxGozGdYZj0yMjIC3369PkxPDz8z5o1a178X4D+P7X1m2tMIEH0AAAAAElFTkSuQmCC;" parent="1" vertex="1">
          <mxGeometry x="-60.00999999999999" y="214.5" width="274.19" height="56.5" as="geometry" />
        </mxCell>
        <mxCell id="6xExoOHHfjhJ3dI4_z3h-32" value="&lt;font style=&quot;font-size: 36px;&quot;&gt;Backbone&amp;nbsp;&lt;/font&gt;" style="text;html=1;align=center;verticalAlign=middle;whiteSpace=wrap;rounded=0;" parent="1" vertex="1">
          <mxGeometry x="60" y="170" width="60" height="30" as="geometry" />
        </mxCell>
        <mxCell id="6xExoOHHfjhJ3dI4_z3h-33" style="edgeStyle=orthogonalEdgeStyle;rounded=0;orthogonalLoop=1;jettySize=auto;html=1;exitX=1;exitY=0.5;exitDx=0;exitDy=0;exitPerimeter=0;endArrow=none;endFill=0;" parent="1" source="6xExoOHHfjhJ3dI4_z3h-34" target="6xExoOHHfjhJ3dI4_z3h-66" edge="1">
          <mxGeometry relative="1" as="geometry" />
        </mxCell>
        <mxCell id="6xExoOHHfjhJ3dI4_z3h-34" value="" style="shape=mxgraph.cisco.routers.router;sketch=0;html=1;pointerEvents=1;dashed=0;fillColor=#e51400;strokeColor=#B20000;strokeWidth=2;verticalLabelPosition=bottom;verticalAlign=top;align=center;outlineConnect=0;fontColor=#ffffff;" parent="1" vertex="1">
          <mxGeometry x="38.08999999999986" y="380" width="78" height="53" as="geometry" />
        </mxCell>
        <mxCell id="6xExoOHHfjhJ3dI4_z3h-35" value="&lt;span style=&quot;font-size: 17px;&quot;&gt;Boitier SDWAN&lt;/span&gt;&lt;div&gt;&lt;span style=&quot;font-size: 17px;&quot;&gt;FreePro&lt;/span&gt;&lt;/div&gt;" style="text;html=1;align=center;verticalAlign=middle;resizable=0;points=[];autosize=1;strokeColor=none;fillColor=none;" parent="1" vertex="1">
          <mxGeometry x="93" y="425" width="140" height="50" as="geometry" />
        </mxCell>
        <mxCell id="6xExoOHHfjhJ3dI4_z3h-36" style="edgeStyle=orthogonalEdgeStyle;rounded=0;orthogonalLoop=1;jettySize=auto;html=1;entryX=0.513;entryY=0.956;entryDx=0;entryDy=0;entryPerimeter=0;endArrow=none;endFill=0;" parent="1" source="6xExoOHHfjhJ3dI4_z3h-34" target="6xExoOHHfjhJ3dI4_z3h-30" edge="1">
          <mxGeometry relative="1" as="geometry" />
        </mxCell>
        <mxCell id="6xExoOHHfjhJ3dI4_z3h-37" style="edgeStyle=orthogonalEdgeStyle;rounded=0;orthogonalLoop=1;jettySize=auto;html=1;entryX=0;entryY=0.5;entryDx=0;entryDy=0;" parent="1" source="6xExoOHHfjhJ3dI4_z3h-38" target="6xExoOHHfjhJ3dI4_z3h-56" edge="1">
          <mxGeometry relative="1" as="geometry" />
        </mxCell>
        <mxCell id="6xExoOHHfjhJ3dI4_z3h-38" value="" style="rounded=0;whiteSpace=wrap;html=1;fillColor=#f8cecc;strokeColor=#b85450;" parent="1" vertex="1">
          <mxGeometry x="-45.809999999999945" y="476" width="260" height="200" as="geometry" />
        </mxCell>
        <mxCell id="6xExoOHHfjhJ3dI4_z3h-39" value="" style="shape=mxgraph.cisco.buildings.telecommuter_house_pc;sketch=0;html=1;pointerEvents=1;dashed=0;fillColor=#036897;strokeColor=#ffffff;strokeWidth=2;verticalLabelPosition=bottom;verticalAlign=top;align=center;outlineConnect=0;" parent="1" vertex="1">
          <mxGeometry x="-94" y="620" width="104" height="88" as="geometry" />
        </mxCell>
        <mxCell id="6xExoOHHfjhJ3dI4_z3h-40" value="" style="shape=mxgraph.cisco.switches.workgroup_switch;sketch=0;html=1;pointerEvents=1;dashed=0;fillColor=#a0522d;strokeColor=#6D1F00;strokeWidth=2;verticalLabelPosition=bottom;verticalAlign=top;align=center;outlineConnect=0;fontColor=#ffffff;" parent="1" vertex="1">
          <mxGeometry x="32.09000000000003" y="523" width="90" height="52" as="geometry" />
        </mxCell>
        <mxCell id="6xExoOHHfjhJ3dI4_z3h-41" value="&lt;font style=&quot;font-size: 17px;&quot;&gt;Local technique principal&lt;/font&gt;" style="text;html=1;align=center;verticalAlign=middle;resizable=0;points=[];autosize=1;strokeColor=none;fillColor=none;" parent="1" vertex="1">
          <mxGeometry x="-20.809999999999945" y="595" width="210" height="30" as="geometry" />
        </mxCell>
        <mxCell id="6xExoOHHfjhJ3dI4_z3h-42" value="&lt;font style=&quot;font-size: 17px;&quot;&gt;CA&lt;/font&gt;" style="text;html=1;align=center;verticalAlign=middle;resizable=0;points=[];autosize=1;strokeColor=none;fillColor=none;" parent="1" vertex="1">
          <mxGeometry x="107.00000000000006" y="557" width="50" height="30" as="geometry" />
        </mxCell>
        <mxCell id="6xExoOHHfjhJ3dI4_z3h-43" style="edgeStyle=orthogonalEdgeStyle;rounded=0;orthogonalLoop=1;jettySize=auto;html=1;entryX=0.5;entryY=1;entryDx=0;entryDy=0;entryPerimeter=0;" parent="1" source="6xExoOHHfjhJ3dI4_z3h-40" target="6xExoOHHfjhJ3dI4_z3h-34" edge="1">
          <mxGeometry relative="1" as="geometry" />
        </mxCell>
        <mxCell id="6xExoOHHfjhJ3dI4_z3h-44" style="edgeStyle=orthogonalEdgeStyle;rounded=0;orthogonalLoop=1;jettySize=auto;html=1;entryX=0.5;entryY=1;entryDx=0;entryDy=0;endArrow=none;endFill=0;" parent="1" source="6xExoOHHfjhJ3dI4_z3h-45" target="6xExoOHHfjhJ3dI4_z3h-38" edge="1">
          <mxGeometry relative="1" as="geometry" />
        </mxCell>
        <mxCell id="6xExoOHHfjhJ3dI4_z3h-45" value="" style="rounded=0;whiteSpace=wrap;html=1;fillColor=#dae8fc;strokeColor=#6c8ebf;" parent="1" vertex="1">
          <mxGeometry x="-65" y="730" width="215" height="170" as="geometry" />
        </mxCell>
        <mxCell id="6xExoOHHfjhJ3dI4_z3h-46" style="edgeStyle=orthogonalEdgeStyle;rounded=0;orthogonalLoop=1;jettySize=auto;html=1;endArrow=none;endFill=0;" parent="1" source="6xExoOHHfjhJ3dI4_z3h-47" target="6xExoOHHfjhJ3dI4_z3h-45" edge="1">
          <mxGeometry relative="1" as="geometry" />
        </mxCell>
        <mxCell id="6xExoOHHfjhJ3dI4_z3h-47" value="" style="rounded=0;whiteSpace=wrap;html=1;fillColor=#ffe6cc;strokeColor=#d79b00;" parent="1" vertex="1">
          <mxGeometry x="-392" y="745" width="200" height="140" as="geometry" />
        </mxCell>
        <mxCell id="WJFELQo8fEpNI8L8ADtb-6" style="edgeStyle=orthogonalEdgeStyle;rounded=0;orthogonalLoop=1;jettySize=auto;html=1;" edge="1" parent="1" source="6xExoOHHfjhJ3dI4_z3h-48" target="WJFELQo8fEpNI8L8ADtb-5">
          <mxGeometry relative="1" as="geometry" />
        </mxCell>
        <mxCell id="6xExoOHHfjhJ3dI4_z3h-48" value="" style="shape=mxgraph.cisco.computers_and_peripherals.pc;sketch=0;html=1;pointerEvents=1;dashed=0;fillColor=#036897;strokeColor=#ffffff;strokeWidth=2;verticalLabelPosition=bottom;verticalAlign=top;align=center;outlineConnect=0;" parent="1" vertex="1">
          <mxGeometry x="-372" y="755" width="60" height="50" as="geometry" />
        </mxCell>
        <mxCell id="6xExoOHHfjhJ3dI4_z3h-49" value="" style="shape=mxgraph.cisco.computers_and_peripherals.pc;sketch=0;html=1;pointerEvents=1;dashed=0;fillColor=#036897;strokeColor=#ffffff;strokeWidth=2;verticalLabelPosition=bottom;verticalAlign=top;align=center;outlineConnect=0;" parent="1" vertex="1">
          <mxGeometry x="-272" y="755" width="60" height="50" as="geometry" />
        </mxCell>
        <mxCell id="WJFELQo8fEpNI8L8ADtb-8" style="edgeStyle=orthogonalEdgeStyle;rounded=0;orthogonalLoop=1;jettySize=auto;html=1;" edge="1" parent="1" source="6xExoOHHfjhJ3dI4_z3h-50" target="WJFELQo8fEpNI8L8ADtb-7">
          <mxGeometry relative="1" as="geometry" />
        </mxCell>
        <mxCell id="6xExoOHHfjhJ3dI4_z3h-50" value="" style="shape=mxgraph.cisco.computers_and_peripherals.pc;sketch=0;html=1;pointerEvents=1;dashed=0;fillColor=#036897;strokeColor=#ffffff;strokeWidth=2;verticalLabelPosition=bottom;verticalAlign=top;align=center;outlineConnect=0;" parent="1" vertex="1">
          <mxGeometry x="-322" y="825" width="60" height="50" as="geometry" />
        </mxCell>
        <mxCell id="6xExoOHHfjhJ3dI4_z3h-51" value="" style="shape=mxgraph.cisco.switches.workgroup_switch;sketch=0;html=1;pointerEvents=1;dashed=0;fillColor=#036897;strokeColor=#ffffff;strokeWidth=2;verticalLabelPosition=bottom;verticalAlign=top;align=center;outlineConnect=0;" parent="1" vertex="1">
          <mxGeometry x="-8" y="800" width="101" height="50" as="geometry" />
        </mxCell>
        <mxCell id="6xExoOHHfjhJ3dI4_z3h-52" style="edgeStyle=orthogonalEdgeStyle;rounded=0;orthogonalLoop=1;jettySize=auto;html=1;entryX=0.5;entryY=1;entryDx=0;entryDy=0;exitX=1;exitY=0.25;exitDx=0;exitDy=0;endArrow=none;endFill=0;" parent="1" source="6xExoOHHfjhJ3dI4_z3h-45" target="6xExoOHHfjhJ3dI4_z3h-56" edge="1">
          <mxGeometry relative="1" as="geometry">
            <mxPoint x="160" y="760" as="sourcePoint" />
          </mxGeometry>
        </mxCell>
        <mxCell id="6xExoOHHfjhJ3dI4_z3h-53" value="&lt;font style=&quot;font-size: 17px;&quot;&gt;RÃ©seau de distribution&lt;/font&gt;" style="text;html=1;align=center;verticalAlign=middle;resizable=0;points=[];autosize=1;strokeColor=none;fillColor=none;" parent="1" vertex="1">
          <mxGeometry x="-55" y="745" width="190" height="30" as="geometry" />
        </mxCell>
        <mxCell id="6xExoOHHfjhJ3dI4_z3h-54" value="&lt;font style=&quot;font-size: 17px;&quot;&gt;LAN&lt;/font&gt;" style="text;html=1;align=center;verticalAlign=middle;resizable=0;points=[];autosize=1;strokeColor=none;fillColor=none;" parent="1" vertex="1">
          <mxGeometry x="-252" y="855" width="60" height="30" as="geometry" />
        </mxCell>
        <mxCell id="6xExoOHHfjhJ3dI4_z3h-55" value="&lt;span style=&quot;font-size: 17px;&quot;&gt;CD&lt;/span&gt;" style="text;html=1;align=center;verticalAlign=middle;resizable=0;points=[];autosize=1;strokeColor=none;fillColor=none;" parent="1" vertex="1">
          <mxGeometry x="70" y="845" width="50" height="30" as="geometry" />
        </mxCell>
        <mxCell id="6xExoOHHfjhJ3dI4_z3h-56" value="" style="rounded=0;whiteSpace=wrap;html=1;fillColor=#FFE599;strokeColor=#b85450;" parent="1" vertex="1">
          <mxGeometry x="290" y="493.5" width="191.81" height="165" as="geometry" />
        </mxCell>
        <mxCell id="6xExoOHHfjhJ3dI4_z3h-57" value="" style="shape=mxgraph.cisco.buildings.telecommuter_house_pc;sketch=0;html=1;pointerEvents=1;dashed=0;fillColor=#FF9933;strokeColor=#ffffff;strokeWidth=2;verticalLabelPosition=bottom;verticalAlign=top;align=center;outlineConnect=0;" parent="1" vertex="1">
          <mxGeometry x="240" y="599" width="104" height="88" as="geometry" />
        </mxCell>
        <mxCell id="6xExoOHHfjhJ3dI4_z3h-58" value="&lt;font style=&quot;font-size: 14px;&quot;&gt;Local technique secondaire&lt;/font&gt;" style="text;html=1;align=center;verticalAlign=middle;resizable=0;points=[];autosize=1;strokeColor=none;fillColor=none;" parent="1" vertex="1">
          <mxGeometry x="290" y="500" width="190" height="30" as="geometry" />
        </mxCell>
        <mxCell id="6xExoOHHfjhJ3dI4_z3h-59" value="" style="shape=mxgraph.cisco.switches.workgroup_switch;sketch=0;html=1;pointerEvents=1;dashed=0;fillColor=#a0522d;strokeColor=#6D1F00;strokeWidth=2;verticalLabelPosition=bottom;verticalAlign=top;align=center;outlineConnect=0;fontColor=#ffffff;" parent="1" vertex="1">
          <mxGeometry x="340.00000000000006" y="547" width="90" height="52" as="geometry" />
        </mxCell>
        <mxCell id="6xExoOHHfjhJ3dI4_z3h-60" value="&lt;font style=&quot;font-size: 17px;&quot;&gt;CA&lt;/font&gt;" style="text;html=1;align=center;verticalAlign=middle;resizable=0;points=[];autosize=1;strokeColor=none;fillColor=none;" parent="1" vertex="1">
          <mxGeometry x="414.9100000000001" y="575" width="50" height="30" as="geometry" />
        </mxCell>
        <mxCell id="6xExoOHHfjhJ3dI4_z3h-61" value="&lt;font style=&quot;font-size: 17px;&quot;&gt;Informations LAN :&amp;nbsp;&lt;/font&gt;&lt;div&gt;&lt;font style=&quot;font-size: 17px;&quot;&gt;- 1 local technique principal&lt;/font&gt;&lt;/div&gt;&lt;div&gt;&lt;font style=&quot;font-size: 17px;&quot;&gt;- 1 ou plusieurs LTS&lt;/font&gt;&lt;/div&gt;&lt;div&gt;&lt;font style=&quot;font-size: 17px;&quot;&gt;- Netmask /24 ou /23&lt;/font&gt;&lt;/div&gt;&lt;div&gt;&lt;font style=&quot;font-size: 17px;&quot;&gt;- 30 switchs (48 ports)&lt;/font&gt;&lt;/div&gt;&lt;div&gt;&lt;font style=&quot;font-size: 17px;&quot;&gt;- Estimation : centaine d&#39;utilisateurs&lt;/font&gt;&lt;/div&gt;" style="text;html=1;align=center;verticalAlign=middle;resizable=0;points=[];autosize=1;strokeColor=none;fillColor=none;" parent="1" vertex="1">
          <mxGeometry x="195" y="790" width="290" height="140" as="geometry" />
        </mxCell>
        <mxCell id="6xExoOHHfjhJ3dI4_z3h-62" value="&lt;font style=&quot;font-size: 18px;&quot;&gt;AUTRE SITE SP&lt;/font&gt;" style="rounded=0;whiteSpace=wrap;html=1;fillColor=#67AB9F;strokeColor=#b85450;" parent="1" vertex="1">
          <mxGeometry x="-510" y="143.75" width="190" height="137.5" as="geometry" />
        </mxCell>
        <mxCell id="6xExoOHHfjhJ3dI4_z3h-63" style="edgeStyle=orthogonalEdgeStyle;rounded=0;orthogonalLoop=1;jettySize=auto;html=1;entryX=0.099;entryY=0.497;entryDx=0;entryDy=0;entryPerimeter=0;endArrow=none;endFill=0;" parent="1" source="6xExoOHHfjhJ3dI4_z3h-65" target="6xExoOHHfjhJ3dI4_z3h-30" edge="1">
          <mxGeometry relative="1" as="geometry" />
        </mxCell>
        <mxCell id="6xExoOHHfjhJ3dI4_z3h-64" value="" style="edgeStyle=orthogonalEdgeStyle;rounded=0;orthogonalLoop=1;jettySize=auto;html=1;entryX=0.099;entryY=0.497;entryDx=0;entryDy=0;entryPerimeter=0;" parent="1" source="6xExoOHHfjhJ3dI4_z3h-62" target="6xExoOHHfjhJ3dI4_z3h-65" edge="1">
          <mxGeometry relative="1" as="geometry">
            <mxPoint x="-320" y="213" as="sourcePoint" />
            <mxPoint x="-132" y="212" as="targetPoint" />
          </mxGeometry>
        </mxCell>
        <mxCell id="6xExoOHHfjhJ3dI4_z3h-65" value="" style="shape=mxgraph.cisco.routers.router;sketch=0;html=1;pointerEvents=1;dashed=0;fillColor=#e51400;strokeColor=#B20000;strokeWidth=2;verticalLabelPosition=bottom;verticalAlign=top;align=center;outlineConnect=0;fontColor=#ffffff;" parent="1" vertex="1">
          <mxGeometry x="-270.0000000000001" y="186" width="78" height="53" as="geometry" />
        </mxCell>
        <mxCell id="6xExoOHHfjhJ3dI4_z3h-66" value="" style="shape=mxgraph.cisco.security.firewall;sketch=0;html=1;pointerEvents=1;dashed=0;fillColor=#036897;strokeColor=#ffffff;strokeWidth=2;verticalLabelPosition=bottom;verticalAlign=top;align=center;outlineConnect=0;" parent="1" vertex="1">
          <mxGeometry x="368.16999999999996" y="325" width="101" height="87" as="geometry" />
        </mxCell>
        <mxCell id="6xExoOHHfjhJ3dI4_z3h-67" value="&lt;font style=&quot;font-size: 17px;&quot;&gt;Firewall&lt;/font&gt;" style="text;html=1;align=center;verticalAlign=middle;resizable=0;points=[];autosize=1;strokeColor=none;fillColor=none;" parent="1" vertex="1">
          <mxGeometry x="443.46000000000004" y="414" width="80" height="30" as="geometry" />
        </mxCell>
        <mxCell id="WJFELQo8fEpNI8L8ADtb-31" style="edgeStyle=orthogonalEdgeStyle;rounded=0;orthogonalLoop=1;jettySize=auto;html=1;" edge="1" parent="1" source="6xExoOHHfjhJ3dI4_z3h-68" target="WJFELQo8fEpNI8L8ADtb-25">
          <mxGeometry relative="1" as="geometry" />
        </mxCell>
        <mxCell id="6xExoOHHfjhJ3dI4_z3h-68" value="&lt;font style=&quot;font-size: 18px;&quot;&gt;INTERNET&lt;/font&gt;" style="ellipse;shape=cloud;whiteSpace=wrap;html=1;strokeWidth=3;fillColor=#00FFFF;" parent="1" vertex="1">
          <mxGeometry x="340" y="141" width="194.35" height="130" as="geometry" />
        </mxCell>
        <mxCell id="6xExoOHHfjhJ3dI4_z3h-69" style="edgeStyle=orthogonalEdgeStyle;rounded=0;orthogonalLoop=1;jettySize=auto;html=1;entryX=0.55;entryY=0.95;entryDx=0;entryDy=0;entryPerimeter=0;endArrow=none;endFill=0;" parent="1" source="6xExoOHHfjhJ3dI4_z3h-66" target="6xExoOHHfjhJ3dI4_z3h-68" edge="1">
          <mxGeometry relative="1" as="geometry" />
        </mxCell>
        <mxCell id="WJFELQo8fEpNI8L8ADtb-3" style="rounded=0;orthogonalLoop=1;jettySize=auto;html=1;dashed=1;" edge="1" parent="1" source="WJFELQo8fEpNI8L8ADtb-1" target="6xExoOHHfjhJ3dI4_z3h-47">
          <mxGeometry relative="1" as="geometry" />
        </mxCell>
        <mxCell id="WJFELQo8fEpNI8L8ADtb-1" value="IPBX&lt;div&gt;&lt;br&gt;&lt;/div&gt;" style="image;points=[];aspect=fixed;html=1;align=center;shadow=0;dashed=0;image=img/lib/allied_telesis/storage/Datacenter_Server_Rack_EoR.svg;" vertex="1" parent="1">
          <mxGeometry x="-65" y="406.64" width="82" height="165.72" as="geometry" />
        </mxCell>
        <mxCell id="WJFELQo8fEpNI8L8ADtb-4" style="rounded=0;orthogonalLoop=1;jettySize=auto;html=1;entryX=0;entryY=0.5;entryDx=0;entryDy=0;entryPerimeter=0;dashed=1;" edge="1" parent="1" source="WJFELQo8fEpNI8L8ADtb-1" target="6xExoOHHfjhJ3dI4_z3h-34">
          <mxGeometry relative="1" as="geometry" />
        </mxCell>
        <mxCell id="WJFELQo8fEpNI8L8ADtb-5" value="" style="verticalLabelPosition=bottom;sketch=0;aspect=fixed;html=1;verticalAlign=top;strokeColor=none;align=center;outlineConnect=0;shape=mxgraph.citrix.ip_phone;" vertex="1" parent="1">
          <mxGeometry x="-500" y="761.5" width="76.5" height="37" as="geometry" />
        </mxCell>
        <mxCell id="WJFELQo8fEpNI8L8ADtb-7" value="" style="verticalLabelPosition=bottom;sketch=0;aspect=fixed;html=1;verticalAlign=top;strokeColor=none;align=center;outlineConnect=0;shape=mxgraph.citrix.ip_phone;" vertex="1" parent="1">
          <mxGeometry x="-448.5" y="831.5" width="76.5" height="37" as="geometry" />
        </mxCell>
        <mxCell id="WJFELQo8fEpNI8L8ADtb-10" value="&lt;div&gt;VoIP&lt;/div&gt;&lt;div&gt;gateway&lt;/div&gt;&lt;div&gt;&lt;br&gt;&lt;/div&gt;" style="shape=mxgraph.cisco.switches.workgroup_switch;sketch=0;html=1;pointerEvents=1;dashed=0;fillColor=#d0cee2;strokeColor=#56517e;strokeWidth=2;verticalLabelPosition=bottom;verticalAlign=top;align=center;outlineConnect=0;" vertex="1" parent="1">
          <mxGeometry x="-183.99999999999997" y="463.5" width="90" height="52" as="geometry" />
        </mxCell>
        <mxCell id="WJFELQo8fEpNI8L8ADtb-19" value="" style="verticalLabelPosition=bottom;sketch=0;aspect=fixed;html=1;verticalAlign=top;strokeColor=none;align=center;outlineConnect=0;shape=mxgraph.citrix.ip_phone;" vertex="1" parent="1">
          <mxGeometry x="-448.5" y="471" width="76.5" height="37" as="geometry" />
        </mxCell>
        <mxCell id="WJFELQo8fEpNI8L8ADtb-21" style="edgeStyle=orthogonalEdgeStyle;rounded=0;orthogonalLoop=1;jettySize=auto;html=1;entryX=0.98;entryY=0.5;entryDx=0;entryDy=0;entryPerimeter=0;" edge="1" parent="1" source="WJFELQo8fEpNI8L8ADtb-1" target="WJFELQo8fEpNI8L8ADtb-10">
          <mxGeometry relative="1" as="geometry" />
        </mxCell>
        <mxCell id="WJFELQo8fEpNI8L8ADtb-24" style="edgeStyle=orthogonalEdgeStyle;rounded=0;orthogonalLoop=1;jettySize=auto;html=1;" edge="1" parent="1" source="WJFELQo8fEpNI8L8ADtb-22" target="WJFELQo8fEpNI8L8ADtb-19">
          <mxGeometry relative="1" as="geometry" />
        </mxCell>
        <mxCell id="WJFELQo8fEpNI8L8ADtb-22" value="PSTN" style="ellipse;shape=cloud;whiteSpace=wrap;html=1;" vertex="1" parent="1">
          <mxGeometry x="-345.5" y="428" width="153.5" height="123" as="geometry" />
        </mxCell>
        <mxCell id="WJFELQo8fEpNI8L8ADtb-23" style="edgeStyle=orthogonalEdgeStyle;rounded=0;orthogonalLoop=1;jettySize=auto;html=1;entryX=0.875;entryY=0.5;entryDx=0;entryDy=0;entryPerimeter=0;dashed=1;" edge="1" parent="1" source="WJFELQo8fEpNI8L8ADtb-10" target="WJFELQo8fEpNI8L8ADtb-22">
          <mxGeometry relative="1" as="geometry" />
        </mxCell>
        <mxCell id="WJFELQo8fEpNI8L8ADtb-28" style="edgeStyle=orthogonalEdgeStyle;rounded=0;orthogonalLoop=1;jettySize=auto;html=1;exitX=0.98;exitY=0.5;exitDx=0;exitDy=0;exitPerimeter=0;" edge="1" parent="1" source="WJFELQo8fEpNI8L8ADtb-25" target="WJFELQo8fEpNI8L8ADtb-26">
          <mxGeometry relative="1" as="geometry">
            <Array as="points">
              <mxPoint x="697" y="206" />
            </Array>
          </mxGeometry>
        </mxCell>
        <mxCell id="WJFELQo8fEpNI8L8ADtb-25" value="&lt;div&gt;VoIP&lt;/div&gt;&lt;div&gt;provider&lt;/div&gt;&lt;div&gt;&lt;br&gt;&lt;/div&gt;" style="shape=mxgraph.cisco.switches.workgroup_switch;sketch=0;html=1;pointerEvents=1;dashed=0;fillColor=#b0e3e6;strokeColor=#0e8088;strokeWidth=2;verticalLabelPosition=bottom;verticalAlign=top;align=center;outlineConnect=0;" vertex="1" parent="1">
          <mxGeometry x="571.75" y="180" width="90" height="52" as="geometry" />
        </mxCell>
        <mxCell id="WJFELQo8fEpNI8L8ADtb-30" style="edgeStyle=orthogonalEdgeStyle;rounded=0;orthogonalLoop=1;jettySize=auto;html=1;" edge="1" parent="1" source="WJFELQo8fEpNI8L8ADtb-26" target="WJFELQo8fEpNI8L8ADtb-29">
          <mxGeometry relative="1" as="geometry" />
        </mxCell>
        <mxCell id="WJFELQo8fEpNI8L8ADtb-26" value="PSTN" style="ellipse;shape=cloud;whiteSpace=wrap;html=1;" vertex="1" parent="1">
          <mxGeometry x="640" y="260" width="120" height="78.75" as="geometry" />
        </mxCell>
        <mxCell id="WJFELQo8fEpNI8L8ADtb-29" value="" style="verticalLabelPosition=bottom;sketch=0;aspect=fixed;html=1;verticalAlign=top;strokeColor=none;align=center;outlineConnect=0;shape=mxgraph.citrix.ip_phone;" vertex="1" parent="1">
          <mxGeometry x="661.75" y="380" width="76.5" height="37" as="geometry" />
        </mxCell>
        <mxCell id="WJFELQo8fEpNI8L8ADtb-35" value="softphone&lt;div&gt;&lt;br&gt;&lt;/div&gt;" style="image;points=[];aspect=fixed;html=1;align=center;shadow=0;dashed=0;image=img/lib/allied_telesis/computer_and_terminals/Personal_Computer.svg;" vertex="1" parent="1">
          <mxGeometry x="488.75" y="40" width="45.6" height="61.800000000000004" as="geometry" />
        </mxCell>
        <mxCell id="WJFELQo8fEpNI8L8ADtb-37" style="edgeStyle=orthogonalEdgeStyle;rounded=0;orthogonalLoop=1;jettySize=auto;html=1;entryX=-0.013;entryY=0.49;entryDx=0;entryDy=0;entryPerimeter=0;" edge="1" parent="1" source="6xExoOHHfjhJ3dI4_z3h-68" target="WJFELQo8fEpNI8L8ADtb-35">
          <mxGeometry relative="1" as="geometry" />
        </mxCell>
      </root>
    </mxGraphModel>
  </diagram>
</mxfile>
